<svg width="31" height="14" fill="none" xmlns="http://www.w3.org/2000/svg"><path d="M6.209 13H3.636V3.006H.34V.864h9.164v2.142H6.21V13zm12.152 0h-6.989V.864h6.99v2.109h-4.417v2.664h4.11v2.109h-4.11v3.129h4.416V13zm12.144 0H27.94V3.006h-2.97l-.133 1.112c-.343 2.828-.647 4.815-.913 5.96-.26 1.14-.642 1.943-1.146 2.407-.503.465-1.184.692-2.042.681-.465 0-.874-.06-1.228-.183v-2.108c.32.11.622.166.905.166.293 0 .525-.133.697-.398.171-.272.332-.77.481-1.495.155-.73.357-1.923.606-3.577.255-1.66.47-3.23.648-4.707h7.661V13z" fill="#63D1BB"/></svg>