<svg width="605" height="112" fill="none" xmlns="http://www.w3.org/2000/svg"><path d="M16.349 42l-9.11-29.683h-.233c.328 6.038.492 10.067.492 12.085V42H.33V4.165h10.92l8.955 28.933h.155l9.497-28.933h10.921V42H33.3V24.092c0-.846.009-1.82.026-2.924.035-1.105.155-4.038.362-8.8h-.232L23.698 42h-7.35zM57.34 13.067v11.439c0 1.207-.199 4.158-.595 8.85l13.353-20.289h9.498V42h-7.635V30.458c0-2.053.173-4.951.518-8.695L59.178 42h-9.471V13.067h7.634zM113.809 42h-7.893V18.994h-7.272c-.553 6.47-1.225 11.3-2.019 14.492-.794 3.174-1.855 5.478-3.183 6.91-1.311 1.414-3.036 2.122-5.176 2.122-1.829 0-3.33-.276-4.503-.828v-6.315a6.671 6.671 0 002.536.518c.984 0 1.803-.708 2.459-2.123.673-1.414 1.268-3.77 1.785-7.064.535-3.313.992-7.859 1.372-13.639h21.894V42zm16.2-17.753h3.804c4.417 0 7.686.707 9.808 2.122s3.183 3.554 3.183 6.418c0 3.054-1.061 5.357-3.183 6.91-2.122 1.535-5.296 2.303-9.523 2.303h-11.982V13.067h7.893v11.18zm8.902 8.644c0-1.122-.448-1.933-1.346-2.433-.897-.5-2.234-.75-4.011-.75h-3.545v6.832h3.649c3.502 0 5.253-1.217 5.253-3.65zM158.89 42h-7.893V13.067h7.893V42zm20.289-23.86c-1.674 0-2.985.534-3.934 1.604-.949 1.053-1.492 2.553-1.63 4.503h11.076c-.035-1.95-.544-3.45-1.527-4.503-.983-1.07-2.312-1.604-3.985-1.604zm1.113 24.378c-4.659 0-8.299-1.286-10.921-3.856-2.623-2.571-3.934-6.211-3.934-10.921 0-4.848 1.208-8.592 3.623-11.232 2.433-2.657 5.788-3.985 10.067-3.985 4.089 0 7.272 1.165 9.549 3.494 2.278 2.329 3.416 5.546 3.416 9.652v3.83h-18.658c.086 2.243.75 3.995 1.992 5.254 1.242 1.26 2.985 1.89 5.228 1.89 1.742 0 3.39-.182 4.943-.544 1.552-.363 3.174-.94 4.865-1.734v6.107c-1.38.69-2.855 1.2-4.425 1.527-1.57.345-3.485.518-5.745.518zM255.366 42h-43.088V13.067h7.893v23.007h9.704V13.067h7.894v23.007h9.704V13.067h7.893V42zm32.245-28.933v5.927h-9.471V42h-7.893V18.994h-9.498v-5.927h26.862zm1.268 0h8.644l5.46 16.278c.466 1.415.785 3.088.958 5.02h.155a22.21 22.21 0 011.113-5.02l5.357-16.278h8.462l-12.24 32.634c-1.122 3.019-2.726 5.279-4.814 6.78-2.07 1.5-4.494 2.251-7.272 2.251-1.363 0-2.7-.146-4.011-.44V48.03a13.49 13.49 0 003.105.336c1.398 0 2.614-.431 3.649-1.294 1.053-.845 1.872-2.13 2.459-3.856l.466-1.423-11.491-28.726zm53.285 0h8.695L339.395 26.94 351.869 42h-8.954l-11.827-14.673V42h-7.893V13.067h7.893V27.12l11.076-14.053zm21.48 0v11.439c0 1.207-.199 4.158-.596 8.85l13.354-20.289h9.497V42h-7.634V30.458c0-2.053.173-4.951.518-8.695L365.481 42h-9.472V13.067h7.635zm60.22 29.45c-3.399 0-6.065-1.233-7.997-3.7h-.414c.276 2.415.414 3.813.414 4.192v11.723h-7.893V13.067h6.418l1.113 3.753h.362c1.846-2.864 4.581-4.296 8.204-4.296 3.416 0 6.09 1.32 8.022 3.96 1.933 2.639 2.899 6.305 2.899 10.998 0 3.088-.457 5.77-1.372 8.048-.897 2.278-2.182 4.011-3.856 5.202-1.673 1.19-3.64 1.786-5.9 1.786zm-2.329-23.679c-1.95 0-3.373.604-4.27 1.812-.897 1.19-1.363 3.166-1.398 5.926v.854c0 3.106.457 5.331 1.372 6.677.931 1.346 2.398 2.019 4.399 2.019 3.537 0 5.305-2.916 5.305-8.748 0-2.846-.44-4.977-1.319-6.392-.863-1.432-2.226-2.148-4.089-2.148zm15.838-5.77h8.643l5.461 16.277c.465 1.415.785 3.088.957 5.02h.155a22.21 22.21 0 011.113-5.02l5.357-16.278h8.462l-12.24 32.634c-1.122 3.019-2.726 5.279-4.814 6.78-2.07 1.5-4.494 2.251-7.272 2.251-1.363 0-2.7-.146-4.011-.44V48.03a13.51 13.51 0 003.106.336c1.397 0 2.613-.431 3.648-1.294 1.053-.845 1.872-2.13 2.459-3.856l.466-1.423-11.49-28.726zm41.251 0v10.584c0 2.519 1.164 3.778 3.493 3.778 1.518 0 2.925-.172 4.218-.517a30.633 30.633 0 003.96-1.346v-12.5h7.893V42h-7.893V30.51c-1.829.966-3.528 1.647-5.098 2.044-1.57.397-3.088.595-4.555.595-3.157 0-5.598-.802-7.324-2.406-1.725-1.622-2.588-3.925-2.588-6.91V13.067h7.894zm35.738 0v11.127h11.025V13.067h7.893V42h-7.893V30.07h-11.025V42h-7.893V13.067h7.893zm33.488 14.414c0 2.864.465 5.03 1.397 6.495.949 1.467 2.484 2.2 4.607 2.2 2.104 0 3.614-.724 4.528-2.174.932-1.466 1.398-3.64 1.398-6.521 0-2.864-.466-5.012-1.398-6.444-.931-1.432-2.458-2.148-4.58-2.148-2.105 0-3.623.716-4.555 2.148-.932 1.415-1.397 3.563-1.397 6.444zm20.004 0c0 4.71-1.242 8.393-3.727 11.05-2.484 2.657-5.943 3.986-10.377 3.986-2.778 0-5.228-.604-7.35-1.812-2.122-1.225-3.752-2.976-4.891-5.253-1.138-2.278-1.708-4.935-1.708-7.971 0-4.727 1.234-8.402 3.701-11.024 2.467-2.623 5.935-3.934 10.403-3.934 2.778 0 5.228.604 7.35 1.812 2.122 1.207 3.752 2.941 4.891 5.201 1.139 2.26 1.708 4.909 1.708 7.945zm14.156-14.415v11.439c0 1.207-.199 4.158-.595 8.85l13.353-20.289h9.498V42h-7.635V30.458c0-2.053.173-4.951.518-8.695L583.847 42h-9.472V13.067h7.635zM601.937.62c-.328 3.226-1.545 5.58-3.649 7.065-2.105 1.466-5.142 2.2-9.11 2.2-4.089 0-7.116-.708-9.083-2.123-1.95-1.414-3.045-3.795-3.287-7.142h7.065c.121 1.777.561 3.027 1.32 3.752.776.707 2.156 1.061 4.14 1.061 1.743 0 3.037-.388 3.882-1.164.863-.794 1.389-2.01 1.579-3.65h7.143zM82.547 99.518c-3.399 0-6.064-1.234-7.997-3.701h-.414c.276 2.415.414 3.813.414 4.192v11.723h-7.893V70.067h6.418l1.113 3.753h.362c1.846-2.864 4.58-4.296 8.204-4.296 3.416 0 6.09 1.32 8.022 3.96 1.933 2.639 2.899 6.305 2.899 10.998 0 3.088-.457 5.77-1.372 8.048-.897 2.278-2.182 4.011-3.856 5.202-1.673 1.19-3.64 1.786-5.9 1.786zm-2.33-23.68c-1.949 0-3.372.604-4.27 1.812-.896 1.19-1.362 3.166-1.397 5.926v.854c0 3.106.457 5.331 1.372 6.677.931 1.346 2.398 2.019 4.4 2.019 3.536 0 5.304-2.916 5.304-8.748 0-2.846-.44-4.977-1.32-6.392-.862-1.432-2.225-2.148-4.088-2.148zM118.57 99l-1.527-3.934h-.207c-1.328 1.674-2.7 2.838-4.114 3.494-1.398.638-3.227.958-5.487.958-2.777 0-4.968-.794-6.573-2.381-1.587-1.588-2.38-3.848-2.38-6.78 0-3.072 1.069-5.332 3.208-6.78 2.157-1.467 5.4-2.278 9.731-2.433l5.02-.156V79.72c0-2.933-1.501-4.4-4.503-4.4-2.312 0-5.029.7-8.152 2.097l-2.613-5.331c3.329-1.743 7.021-2.614 11.076-2.614 3.882 0 6.858.846 8.928 2.536 2.07 1.691 3.106 4.262 3.106 7.712V99h-5.513zm-2.329-13.405l-3.053.103c-2.295.07-4.003.483-5.124 1.242-1.122.76-1.683 1.916-1.683 3.468 0 2.226 1.277 3.339 3.83 3.339 1.829 0 3.287-.527 4.374-1.579 1.104-1.052 1.656-2.45 1.656-4.192v-2.381zm14.234-3.934c0-6.642 1.259-11.68 3.778-15.113 2.536-3.45 6.487-5.633 11.852-6.547 2.606-.45 6.496-1.018 11.672-1.709l.906 6.884c-2.243.26-6.22.811-11.931 1.656-2.173.346-3.795.863-4.865 1.553-1.069.69-1.872 1.674-2.407 2.95-.517 1.277-.836 2.977-.957 5.099h.388a9.171 9.171 0 013.623-3.261 10.572 10.572 0 014.84-1.139c3.571 0 6.349 1.096 8.333 3.287 1.984 2.174 2.976 5.296 2.976 9.368 0 4.693-1.26 8.342-3.779 10.947-2.501 2.588-5.96 3.882-10.377 3.882-4.417 0-7.867-1.579-10.352-4.736-2.467-3.175-3.7-7.548-3.7-13.12zm14.518 11.465c3.744 0 5.615-2.58 5.615-7.738 0-5.02-1.69-7.531-5.072-7.531-.931 0-1.863.216-2.795.647-.914.431-1.76 1-2.536 1.708-.759.69-1.32 1.389-1.682 2.096 0 3.502.561 6.185 1.682 8.048 1.122 1.847 2.717 2.77 4.788 2.77zm26.5-8.644c0 2.864.466 5.03 1.397 6.496.949 1.466 2.485 2.2 4.607 2.2 2.104 0 3.614-.725 4.528-2.175.932-1.466 1.398-3.64 1.398-6.521 0-2.864-.466-5.012-1.398-6.444-.931-1.432-2.458-2.148-4.58-2.148-2.105 0-3.623.716-4.555 2.148-.931 1.415-1.397 3.563-1.397 6.444zm20.004 0c0 4.71-1.242 8.393-3.726 11.05-2.485 2.657-5.944 3.986-10.378 3.986-2.778 0-5.227-.604-7.35-1.812-2.122-1.225-3.752-2.976-4.891-5.253-1.138-2.278-1.708-4.935-1.708-7.971 0-4.727 1.234-8.402 3.701-11.025 2.467-2.622 5.935-3.933 10.403-3.933 2.778 0 5.228.604 7.35 1.811 2.122 1.208 3.752 2.942 4.891 5.202 1.139 2.26 1.708 4.908 1.708 7.945zm30.46-14.415v5.927h-9.472V99h-7.893V75.994h-9.498v-5.927h26.863zm13.301 11.18h3.804c4.417 0 7.687.707 9.809 2.122 2.122 1.415 3.183 3.554 3.183 6.418 0 3.054-1.061 5.357-3.183 6.91-2.122 1.535-5.297 2.303-9.524 2.303h-11.982V70.067h7.893v11.18zm8.903 8.644c0-1.122-.449-1.933-1.346-2.433-.897-.5-2.234-.75-4.011-.75h-3.546v6.832h3.649c3.503 0 5.254-1.217 5.254-3.65zM264.139 99h-7.893V70.067h7.893V99zm40.19-5.771V75.994h-5.926a75.096 75.096 0 01-1.786 9.135 37.182 37.182 0 01-3.105 8.1h10.817zm12.137 16.148h-7.091V99h-19.46v10.377h-7.091V93.229h2.432c1.657-2.57 3.045-5.814 4.167-9.73 1.121-3.917 1.906-8.394 2.355-13.432h20.444V93.23h4.244v16.148zM347.314 99h-7.893V75.994h-7.272c-.552 6.47-1.225 11.3-2.019 14.492-.793 3.174-1.854 5.477-3.183 6.91-1.311 1.414-3.036 2.122-5.176 2.122-1.828 0-3.329-.276-4.502-.829v-6.314c.845.345 1.69.518 2.536.518.983 0 1.803-.708 2.458-2.123.673-1.414 1.268-3.77 1.786-7.064.535-3.313.992-7.859 1.371-13.639h21.894V99zm12.707 0h-8.541l7.79-11.439c-1.863-.776-3.278-1.897-4.244-3.364-.949-1.466-1.423-3.192-1.423-5.175 0-2.795 1.043-4.987 3.131-6.574 2.105-1.587 4.969-2.38 8.592-2.38h13.457V99h-7.893V88.234h-4.348L360.021 99zm1.319-19.927c0 1.208.475 2.157 1.424 2.847.949.673 2.191 1.01 3.726 1.01h4.4v-7.3h-5.409c-1.294 0-2.312.32-3.054.958-.724.621-1.087 1.45-1.087 2.484zm57.581 14.156V75.994h-5.926a75.288 75.288 0 01-1.786 9.135 37.182 37.182 0 01-3.105 8.1h10.817zm12.137 16.148h-7.091V99h-19.461v10.377h-7.09V93.229h2.432c1.656-2.57 3.045-5.814 4.167-9.73 1.121-3.917 1.906-8.394 2.355-13.432h20.444V93.23h4.244v16.148zm11.232-24.895c0 2.864.465 5.03 1.397 6.496.949 1.466 2.484 2.2 4.606 2.2 2.105 0 3.615-.725 4.529-2.175.932-1.466 1.398-3.64 1.398-6.521 0-2.864-.466-5.012-1.398-6.444-.931-1.432-2.458-2.148-4.58-2.148-2.105 0-3.623.716-4.555 2.148-.932 1.415-1.397 3.563-1.397 6.444zm20.004 0c0 4.71-1.242 8.393-3.727 11.05-2.484 2.657-5.943 3.986-10.377 3.986-2.778 0-5.228-.604-7.35-1.812-2.122-1.225-3.752-2.976-4.891-5.253-1.138-2.278-1.708-4.935-1.708-7.971 0-4.727 1.234-8.402 3.701-11.025 2.467-2.622 5.935-3.933 10.403-3.933 2.778 0 5.228.604 7.35 1.811 2.122 1.208 3.752 2.942 4.891 5.202 1.139 2.26 1.708 4.908 1.708 7.945zM505.279 99h-7.376V76.2l-.414 1.605c-.931 3.64-1.768 6.392-2.51 8.255L489.855 99h-5.616l-5.201-13.043c-.742-1.898-1.536-4.563-2.381-7.996l-.492-1.76V99h-7.35V70.067h10.87l4.968 12.345c.518 1.328.992 2.855 1.424 4.58.448 1.725.75 3.2.905 4.425.57-2.587 1.01-4.442 1.32-5.564a33.337 33.337 0 011.061-3.13c.38-.95 2.096-5.168 5.15-12.656h10.766V99zm26.681 0l-1.527-3.934h-.207c-1.328 1.674-2.7 2.838-4.115 3.494-1.397.638-3.226.958-5.486.958-2.778 0-4.969-.794-6.573-2.381-1.587-1.588-2.381-3.848-2.381-6.78 0-3.072 1.07-5.332 3.209-6.78 2.156-1.467 5.4-2.278 9.73-2.433l5.021-.156V79.72c0-2.933-1.501-4.4-4.503-4.4-2.312 0-5.029.7-8.152 2.097l-2.614-5.331c3.33-1.743 7.022-2.614 11.076-2.614 3.882 0 6.858.846 8.929 2.536 2.07 1.691 3.105 4.262 3.105 7.712V99h-5.512zm-2.329-13.405l-3.054.103c-2.294.07-4.002.483-5.124 1.242-1.121.76-1.682 1.916-1.682 3.468 0 2.226 1.277 3.339 3.83 3.339 1.829 0 3.287-.527 4.374-1.579 1.104-1.052 1.656-2.45 1.656-4.192v-2.381z" fill="#000"/></svg>