<svg width="491" height="95" fill="none" xmlns="http://www.w3.org/2000/svg"><path d="M13.66 34L6.27 9.917h-.19c.267 4.9.4 8.168.4 9.806V34H.664V3.304h8.86l7.265 23.473h.126L24.62 3.304h8.86V34h-6.067V19.47c0-.685.007-1.476.02-2.372.029-.896.127-3.275.295-7.139h-.19L19.624 34H13.66zm33.258-23.474v9.28c0 .98-.161 3.374-.483 7.181l10.834-16.46h7.706V34H58.78v-9.364c0-1.666.14-4.017.42-7.055L48.409 34h-7.685V10.526h6.194zM92.731 34h-6.403V15.334h-5.9c-.448 5.25-.994 9.169-1.638 11.758-.644 2.576-1.505 4.445-2.583 5.606-1.063 1.148-2.463 1.722-4.199 1.722-1.483 0-2.701-.224-3.653-.672v-5.123a5.41 5.41 0 002.058.42c.797 0 1.462-.574 1.994-1.722.546-1.148 1.03-3.058 1.449-5.732.434-2.687.805-6.376 1.113-11.065h17.763V34zm13.144-14.403h3.086c3.584 0 6.236.574 7.958 1.721 1.722 1.148 2.582 2.884 2.582 5.207 0 2.478-.86 4.347-2.582 5.606-1.722 1.246-4.297 1.869-7.727 1.869h-9.72V10.526h6.403v9.07zm7.223 7.012c0-.91-.364-1.567-1.092-1.973-.728-.406-1.813-.61-3.255-.61h-2.876v5.544h2.96c2.842 0 4.263-.987 4.263-2.96zM129.307 34h-6.404V10.526h6.404V34zm16.461-19.358c-1.358 0-2.422.434-3.192 1.301-.77.854-1.211 2.072-1.323 3.654h8.987c-.028-1.582-.441-2.8-1.239-3.654-.798-.867-1.876-1.301-3.233-1.301zm.902 19.778c-3.779 0-6.732-1.043-8.86-3.129-2.128-2.085-3.191-5.039-3.191-8.86 0-3.933.979-6.97 2.939-9.112 1.974-2.156 4.696-3.234 8.168-3.234 3.317 0 5.9.945 7.747 2.835 1.848 1.89 2.772 4.5 2.772 7.832v3.107h-15.139c.07 1.82.609 3.24 1.617 4.262 1.008 1.022 2.422 1.533 4.241 1.533a17.61 17.61 0 004.011-.441c1.259-.294 2.575-.763 3.947-1.407v4.955a14.73 14.73 0 01-3.59 1.239c-1.274.28-2.828.42-4.662.42zm60.91-.42h-34.958V10.526h6.403v18.666h7.874V10.526h6.404v18.666h7.873V10.526h6.404V34zm26.161-23.474v4.809h-7.684V34h-6.404V15.334h-7.706v-4.808h21.794zm1.029 0h7.013l4.43 13.207c.378 1.148.637 2.505.777 4.073h.126c.154-1.442.455-2.8.903-4.073l4.346-13.207h6.865l-9.931 26.476c-.91 2.45-2.211 4.284-3.905 5.501-1.68 1.218-3.646 1.827-5.9 1.827-1.106 0-2.19-.119-3.254-.357v-5.08c.77.181 1.609.272 2.519.272 1.134 0 2.121-.35 2.961-1.05.854-.686 1.518-1.728 1.994-3.128l.378-1.155-9.322-23.306zm43.231 0h7.055l-9.302 11.254L285.875 34h-7.265l-9.595-11.905V34h-6.404V10.526h6.404v11.401l8.986-11.4zm17.427 0v9.28c0 .98-.161 3.374-.483 7.181l10.834-16.46h7.705V34h-6.193v-9.364c0-1.666.139-4.017.419-7.055L296.918 34h-7.684V10.526h6.194zm48.858 23.894c-2.758 0-4.92-1-6.488-3.003h-.336c.224 1.96.336 3.094.336 3.402v9.511h-6.404V10.526h5.207l.903 3.045h.294c1.498-2.324 3.716-3.486 6.656-3.486 2.771 0 4.941 1.071 6.508 3.213 1.568 2.142 2.352 5.116 2.352 8.923 0 2.506-.371 4.682-1.113 6.53-.728 1.848-1.771 3.254-3.128 4.22-1.358.966-2.954 1.449-4.787 1.449zm-1.89-19.212c-1.582 0-2.736.49-3.464 1.47-.728.966-1.106 2.569-1.134 4.808v.693c0 2.52.371 4.325 1.113 5.417.756 1.092 1.945 1.638 3.569 1.638 2.869 0 4.304-2.366 4.304-7.097 0-2.31-.357-4.038-1.071-5.186-.699-1.162-1.805-1.742-3.317-1.742zm12.85-4.682h7.012l4.43 13.207c.378 1.148.637 2.505.777 4.073h.126c.154-1.442.455-2.8.903-4.073l4.346-13.207h6.866l-9.931 26.476c-.91 2.45-2.212 4.284-3.905 5.501-1.68 1.218-3.647 1.827-5.9 1.827-1.106 0-2.191-.119-3.255-.357v-5.08c.77.181 1.61.272 2.52.272 1.134 0 2.12-.35 2.96-1.05.854-.686 1.519-1.728 1.995-3.128l.378-1.155-9.322-23.306zm33.467 0v8.588c0 2.043.945 3.065 2.835 3.065 1.232 0 2.372-.14 3.422-.42a24.873 24.873 0 003.213-1.091V10.526h6.403V34h-6.403v-9.322c-1.484.784-2.863 1.337-4.137 1.658a15.051 15.051 0 01-3.695.483c-2.561 0-4.542-.65-5.942-1.952-1.4-1.316-2.099-3.185-2.099-5.606v-8.735h6.403zm28.996 0v9.029h8.944v-9.029h6.404V34h-6.404v-9.68h-8.944V34h-6.404V10.526h6.404zm27.169 11.695c0 2.324.378 4.08 1.134 5.27.77 1.19 2.015 1.785 3.737 1.785 1.708 0 2.932-.588 3.674-1.764.756-1.19 1.134-2.953 1.134-5.29 0-2.324-.378-4.067-1.134-5.229-.756-1.162-1.994-1.742-3.716-1.742-1.708 0-2.939.58-3.695 1.742-.756 1.148-1.134 2.89-1.134 5.228zm16.23 0c0 3.822-1.008 6.81-3.024 8.965-2.015 2.156-4.822 3.234-8.419 3.234-2.254 0-4.241-.49-5.963-1.47-1.722-.994-3.044-2.414-3.968-4.262-.924-1.848-1.386-4.003-1.386-6.467 0-3.835 1.001-6.816 3.003-8.944 2.001-2.128 4.815-3.191 8.44-3.191 2.254 0 4.241.49 5.963 1.47 1.722.979 3.044 2.386 3.968 4.22.924 1.833 1.386 3.982 1.386 6.445zm11.485-11.695v9.28c0 .98-.161 3.374-.483 7.181l10.834-16.46h7.705V34h-6.193v-9.364c0-1.666.139-4.017.419-7.055L474.083 34h-7.684V10.526h6.194zM488.76.427c-.266 2.618-1.253 4.528-2.961 5.732-1.707 1.19-4.171 1.785-7.39 1.785-3.318 0-5.774-.574-7.37-1.722-1.582-1.148-2.471-3.08-2.667-5.795h5.732c.098 1.442.455 2.457 1.071 3.045.63.574 1.75.86 3.36.86 1.413 0 2.463-.314 3.149-.944.7-.644 1.127-1.631 1.281-2.96h5.795zM72.953 84.42c-2.757 0-4.92-1-6.488-3.002h-.336c.224 1.96.336 3.093.336 3.4v9.512h-6.403V60.526h5.207l.902 3.045h.294c1.498-2.324 3.717-3.485 6.656-3.485 2.772 0 4.941 1.07 6.509 3.212 1.568 2.141 2.352 5.116 2.352 8.923 0 2.506-.371 4.682-1.113 6.53-.728 1.848-1.771 3.254-3.129 4.22-1.358.966-2.953 1.449-4.787 1.449zm-1.89-19.212c-1.581 0-2.736.49-3.464 1.47-.728.966-1.106 2.569-1.134 4.808v.693c0 2.52.371 4.325 1.113 5.417.756 1.092 1.946 1.638 3.57 1.638 2.869 0 4.304-2.366 4.304-7.097 0-2.31-.357-4.038-1.071-5.186-.7-1.162-1.806-1.742-3.317-1.742zM102.18 84l-1.239-3.191h-.168c-1.078 1.357-2.19 2.302-3.338 2.834-1.134.518-2.618.777-4.452.777-2.253 0-4.03-.644-5.333-1.932-1.287-1.287-1.931-3.121-1.931-5.5 0-2.492.868-4.326 2.603-5.502 1.75-1.19 4.382-1.847 7.895-1.973l4.073-.126v-1.03c0-2.379-1.218-3.568-3.653-3.568-1.876 0-4.08.567-6.614 1.7l-2.12-4.325c2.7-1.414 5.696-2.12 8.986-2.12 3.149 0 5.564.685 7.243 2.057 1.68 1.372 2.52 3.457 2.52 6.257V84h-4.472zm-1.89-10.876l-2.478.084c-1.861.056-3.247.392-4.157 1.008-.91.616-1.364 1.553-1.364 2.813 0 1.806 1.035 2.709 3.107 2.709 1.484 0 2.666-.427 3.548-1.281.896-.854 1.344-1.988 1.344-3.401v-1.932zm11.548-3.191c0-5.39 1.022-9.477 3.065-12.262 2.058-2.8 5.263-4.57 9.617-5.312 2.113-.364 5.27-.826 9.469-1.386l.735 5.585c-1.82.21-5.046.658-9.68 1.344-1.763.28-3.079.7-3.947 1.26-.868.56-1.519 1.357-1.952 2.393-.42 1.036-.679 2.415-.777 4.136h.315a7.436 7.436 0 012.939-2.645 8.58 8.58 0 013.926-.924c2.898 0 5.151.889 6.761 2.667 1.61 1.763 2.415 4.297 2.415 7.6 0 3.808-1.022 6.768-3.066 8.882-2.029 2.1-4.836 3.149-8.419 3.149-3.584 0-6.383-1.28-8.399-3.842-2.001-2.576-3.002-6.124-3.002-10.645zm11.779 9.3c3.037 0 4.556-2.092 4.556-6.277 0-4.073-1.372-6.11-4.115-6.11-.756 0-1.512.175-2.268.525a8.307 8.307 0 00-2.058 1.386c-.615.56-1.07 1.127-1.364 1.7 0 2.842.455 5.019 1.364 6.53.91 1.498 2.205 2.247 3.885 2.247zm21.5-7.012c0 2.324.378 4.08 1.134 5.27.769 1.19 2.015 1.785 3.737 1.785 1.707 0 2.932-.588 3.674-1.764.756-1.19 1.134-2.953 1.134-5.29 0-2.324-.378-4.067-1.134-5.229-.756-1.162-1.995-1.742-3.716-1.742-1.708 0-2.94.58-3.695 1.742-.756 1.148-1.134 2.89-1.134 5.228zm16.23 0c0 3.822-1.008 6.81-3.024 8.965-2.015 2.156-4.822 3.234-8.419 3.234-2.254 0-4.241-.49-5.963-1.47-1.722-.994-3.045-2.414-3.968-4.262-.924-1.848-1.386-4.003-1.386-6.467 0-3.835 1.001-6.817 3.002-8.944 2.002-2.128 4.815-3.191 8.441-3.191 2.253 0 4.241.49 5.963 1.47 1.721.979 3.044 2.386 3.968 4.22.924 1.833 1.386 3.982 1.386 6.445zm24.712-11.695v4.809h-7.684V84h-6.404V65.335h-7.706v-4.809h21.794zm10.792 9.07h3.086c3.584 0 6.236.575 7.958 1.722 1.722 1.148 2.583 2.884 2.583 5.207 0 2.478-.861 4.347-2.583 5.606-1.722 1.246-4.297 1.869-7.727 1.869h-9.721V60.526h6.404v9.07zm7.223 7.013c0-.91-.364-1.567-1.092-1.973-.728-.406-1.813-.61-3.254-.61h-2.877v5.544h2.961c2.841 0 4.262-.987 4.262-2.96zM220.283 84h-6.404V60.526h6.404V84zm32.607-4.682V65.335h-4.808a60.948 60.948 0 01-1.449 7.411 30.139 30.139 0 01-2.52 6.572h8.777zm9.847 13.101h-5.753V84h-15.789v8.42h-5.753V79.317h1.974c1.343-2.086 2.47-4.717 3.38-7.895.91-3.177 1.547-6.81 1.911-10.897h16.586v18.792h3.444v13.101zM287.764 84h-6.404V65.335h-5.9c-.447 5.249-.993 9.168-1.637 11.757-.644 2.576-1.505 4.445-2.583 5.606-1.064 1.148-2.463 1.722-4.199 1.722-1.484 0-2.701-.224-3.653-.672v-5.123c.686.28 1.371.42 2.057.42.798 0 1.463-.574 1.995-1.722.546-1.147 1.029-3.058 1.449-5.732.434-2.687.805-6.375 1.112-11.065h17.763V84zm10.309 0h-6.928l6.319-9.28c-1.511-.63-2.659-1.54-3.443-2.73-.77-1.19-1.155-2.59-1.155-4.199 0-2.268.847-4.045 2.541-5.333 1.707-1.288 4.031-1.932 6.97-1.932h10.918V84h-6.403v-8.734h-3.528L298.073 84zm1.071-16.167c0 .98.385 1.75 1.155 2.31.77.546 1.777.818 3.023.818h3.57v-5.92h-4.389c-1.049 0-1.875.258-2.477.776-.588.504-.882 1.176-.882 2.016zm46.716 11.485V65.335h-4.808a60.948 60.948 0 01-1.449 7.411 30.086 30.086 0 01-2.519 6.572h8.776zm9.847 13.101h-5.752V84h-15.79v8.42h-5.752V79.317h1.973c1.344-2.086 2.471-4.717 3.381-7.895.909-3.177 1.546-6.81 1.91-10.897h16.587v18.792h3.443v13.101zm9.113-20.198c0 2.324.378 4.08 1.134 5.27.769 1.19 2.015 1.785 3.737 1.785 1.708 0 2.932-.588 3.674-1.764.756-1.19 1.134-2.953 1.134-5.29 0-2.324-.378-4.067-1.134-5.229-.756-1.162-1.994-1.742-3.716-1.742-1.708 0-2.94.58-3.695 1.742-.756 1.148-1.134 2.89-1.134 5.228zm16.23 0c0 3.822-1.008 6.81-3.024 8.965-2.015 2.156-4.822 3.234-8.419 3.234-2.254 0-4.241-.49-5.963-1.47-1.722-.994-3.044-2.414-3.968-4.262-.924-1.848-1.386-4.003-1.386-6.467 0-3.835 1.001-6.817 3.002-8.944 2.002-2.128 4.816-3.191 8.441-3.191 2.253 0 4.241.49 5.963 1.47 1.721.979 3.044 2.386 3.968 4.22.924 1.833 1.386 3.982 1.386 6.445zM415.924 84h-5.984V65.502l-.336 1.302c-.755 2.954-1.434 5.186-2.036 6.698L403.411 84h-4.557l-4.22-10.582c-.602-1.54-1.246-3.702-1.931-6.488l-.399-1.428V84h-5.963V60.526h8.818l4.031 10.015c.42 1.078.805 2.317 1.155 3.717.364 1.4.609 2.596.735 3.59.462-2.1.819-3.604 1.071-4.514.266-.924.553-1.77.861-2.54.308-.77 1.7-4.193 4.178-10.268h8.734V84zm21.647 0l-1.239-3.191h-.167c-1.078 1.357-2.191 2.302-3.339 2.834-1.134.518-2.617.777-4.451.777-2.254 0-4.031-.644-5.333-1.932-1.288-1.287-1.932-3.121-1.932-5.5 0-2.492.868-4.326 2.604-5.502 1.75-1.19 4.381-1.847 7.894-1.973l4.074-.126v-1.03c0-2.379-1.218-3.568-3.654-3.568-1.875 0-4.08.567-6.613 1.7l-2.121-4.325c2.701-1.414 5.697-2.12 8.986-2.12 3.15 0 5.564.685 7.244 2.057 1.68 1.372 2.519 3.457 2.519 6.257V84h-4.472zm-1.889-10.876l-2.478.084c-1.862.056-3.247.392-4.157 1.008-.91.616-1.365 1.553-1.365 2.813 0 1.806 1.036 2.709 3.108 2.709 1.483 0 2.666-.427 3.548-1.281.896-.854 1.344-1.988 1.344-3.401v-1.932z" fill="#000"/></svg>