<svg width="240" height="87" fill="none" xmlns="http://www.w3.org/2000/svg"><path d="M30.101 20l-4.64-15.122h-.12c.168 3.077.251 5.129.251 6.157V20H21.94V.726h5.564l4.561 14.739h.08L36.983.725h5.563V20h-3.81v-9.123c0-.43.005-.927.014-1.49.017-.562.079-2.056.184-4.482h-.119L33.845 20h-3.744zM50.984 5.26v5.828c0 .615-.101 2.118-.303 4.509L57.483 5.26h4.839V20h-3.89v-5.88c0-1.046.088-2.522.264-4.43L51.92 20h-4.825V5.26h3.889zM79.75 20h-4.022V8.28h-3.704c-.281 3.296-.624 5.757-1.028 7.383-.405 1.617-.945 2.79-1.622 3.52-.668.72-1.547 1.08-2.637 1.08-.931 0-1.696-.14-2.294-.421v-3.217c.431.176.862.264 1.292.264.501 0 .919-.36 1.253-1.081.343-.721.646-1.92.91-3.6.272-1.687.505-4.003.698-6.947H79.75V20zm8.252-9.044h1.938c2.25 0 3.916.36 4.997 1.081 1.081.72 1.622 1.81 1.622 3.27 0 1.555-.541 2.729-1.622 3.52-1.08.782-2.697 1.173-4.851 1.173h-6.104V5.26h4.021v5.696zm4.536 4.403c0-.57-.229-.984-.686-1.239-.457-.255-1.138-.382-2.043-.382h-1.807v3.48h1.86c1.784 0 2.676-.62 2.676-1.859zM102.716 20h-4.02V5.26h4.02V20zm10.336-12.155c-.852 0-1.52.272-2.004.817-.483.536-.76 1.3-.83 2.294h5.642c-.017-.993-.277-1.758-.777-2.294-.501-.545-1.178-.817-2.031-.817zm.567 12.419c-2.373 0-4.227-.655-5.563-1.965-1.336-1.31-2.004-3.164-2.004-5.563 0-2.47.615-4.377 1.845-5.722 1.24-1.353 2.949-2.03 5.129-2.03 2.083 0 3.704.593 4.865 1.78 1.16 1.186 1.74 2.825 1.74 4.917v1.951h-9.506c.044 1.143.383 2.035 1.016 2.677.632.641 1.52.962 2.663.962.887 0 1.727-.092 2.518-.277a12.584 12.584 0 002.478-.883v3.111a9.235 9.235 0 01-2.254.778c-.8.176-1.775.264-2.927.264zM151.865 20h-21.951V5.26h4.021v11.721h4.944V5.261h4.021v11.72h4.944V5.261h4.021V20zm16.427-14.74v3.02h-4.826V20h-4.021V8.28h-4.838V5.26h13.685zm.646 0h4.403l2.782 8.293c.237.72.399 1.573.487 2.558h.079c.097-.905.286-1.758.567-2.558l2.729-8.292h4.311l-6.235 16.624c-.572 1.538-1.389 2.69-2.453 3.454-1.054.765-2.289 1.147-3.704 1.147a9.334 9.334 0 01-2.044-.224v-3.19a6.882 6.882 0 001.582.171c.712 0 1.332-.22 1.859-.659.536-.43.954-1.085 1.253-1.964l.237-.726-5.853-14.633zm27.145 0h4.429l-5.84 7.067L201.026 20h-4.561l-6.025-7.475V20h-4.021V5.26h4.021v7.16l5.643-7.16zm10.942 0v5.828c0 .615-.101 2.118-.303 4.509l6.802-10.336h4.839V20h-3.889v-5.88c0-1.046.088-2.522.263-4.43L207.961 20h-4.825V5.26h3.889zM74.583 50.265c-1.732 0-3.09-.629-4.074-1.886h-.211c.14 1.23.21 1.943.21 2.136v5.972h-4.02V35.261h3.27l.566 1.911h.185c.94-1.459 2.333-2.188 4.179-2.188 1.74 0 3.102.672 4.087 2.017.984 1.345 1.476 3.212 1.476 5.603 0 1.573-.232 2.94-.698 4.1-.457 1.16-1.112 2.044-1.965 2.65-.852.606-1.854.91-3.005.91zM73.396 38.2c-.993 0-1.718.307-2.175.922-.457.607-.695 1.613-.712 3.02v.435c0 1.582.233 2.715.698 3.401.475.686 1.222 1.028 2.242 1.028 1.802 0 2.702-1.485 2.702-4.456 0-1.45-.224-2.535-.672-3.256-.44-.73-1.134-1.094-2.083-1.094zm8.068-2.94h4.404l2.781 8.292c.238.72.4 1.574.488 2.558h.08c.096-.905.285-1.758.566-2.558l2.73-8.292h4.31l-6.236 16.624c-.57 1.538-1.388 2.69-2.452 3.454-1.054.765-2.29 1.147-3.704 1.147a9.334 9.334 0 01-2.044-.224v-3.19a6.894 6.894 0 001.582.171 2.82 2.82 0 001.86-.659c.535-.43.953-1.086 1.252-1.964l.237-.725-5.854-14.634zm21.015 0v5.392c0 1.283.593 1.925 1.78 1.925.773 0 1.49-.088 2.149-.264a15.54 15.54 0 002.017-.686V35.26h4.021V50h-4.021v-5.853c-.932.492-1.798.839-2.597 1.041-.8.202-1.574.303-2.321.303-1.608 0-2.852-.408-3.73-1.226-.88-.826-1.319-2-1.319-3.52v-5.484h4.021zm18.207 0v5.669h5.616v-5.67h4.021V50h-4.021v-6.078h-5.616V50h-4.021V35.26h4.021zm17.059 7.343c0 1.459.237 2.562.712 3.31.483.746 1.266 1.12 2.347 1.12 1.072 0 1.841-.37 2.307-1.108.474-.747.712-1.854.712-3.322 0-1.459-.238-2.553-.712-3.283-.475-.73-1.253-1.094-2.334-1.094-1.072 0-1.845.365-2.32 1.094-.475.721-.712 1.815-.712 3.283zm10.191 0c0 2.4-.633 4.276-1.898 5.63-1.266 1.353-3.028 2.03-5.287 2.03-1.415 0-2.663-.308-3.744-.923-1.081-.624-1.912-1.516-2.492-2.676-.58-1.16-.87-2.514-.87-4.061 0-2.408.628-4.28 1.885-5.616 1.257-1.336 3.024-2.004 5.3-2.004 1.415 0 2.663.307 3.744.923 1.081.615 1.912 1.498 2.492 2.65.58 1.151.87 2.5.87 4.047zm7.211-7.343v5.827c0 .615-.101 2.118-.303 4.509l6.803-10.336h4.838V50h-3.889v-5.88c0-1.046.088-2.522.264-4.43L156.083 50h-4.825V35.26h3.889zm10.152-6.342c-.167 1.644-.787 2.844-1.859 3.6-1.072.747-2.619 1.12-4.641 1.12-2.083 0-3.625-.36-4.627-1.08-.993-.722-1.551-1.934-1.674-3.64h3.599c.061.906.285 1.543.672 1.912.396.36 1.099.54 2.109.54.888 0 1.547-.197 1.978-.593.439-.404.707-1.024.804-1.859h3.639zM8.203 80.264c-1.731 0-3.09-.629-4.074-1.886h-.21c.14 1.23.21 1.943.21 2.136v5.972H.11V65.261h3.269l.567 1.911h.184c.94-1.459 2.334-2.188 4.18-2.188 1.74 0 3.102.672 4.087 2.017.984 1.345 1.476 3.212 1.476 5.603 0 1.573-.233 2.94-.699 4.1-.457 1.16-1.111 2.044-1.964 2.65-.852.606-1.854.91-3.006.91zM7.017 68.2c-.994 0-1.719.307-2.176.923-.457.606-.694 1.612-.712 3.019v.435c0 1.582.233 2.715.7 3.401.474.686 1.22 1.028 2.24 1.028 1.802 0 2.703-1.485 2.703-4.456 0-1.45-.224-2.535-.672-3.256-.44-.73-1.134-1.094-2.083-1.094zM26.555 80l-.778-2.004h-.106c-.676.853-1.375 1.446-2.096 1.78-.712.325-1.643.488-2.795.488-1.415 0-2.531-.405-3.348-1.213-.809-.809-1.213-1.96-1.213-3.454 0-1.565.545-2.716 1.634-3.454 1.1-.748 2.752-1.16 4.958-1.24l2.557-.079v-.646c0-1.494-.764-2.241-2.294-2.241-1.178 0-2.562.356-4.153 1.068l-1.331-2.716c1.696-.888 3.577-1.332 5.642-1.332 1.978 0 3.494.431 4.549 1.293 1.055.86 1.582 2.17 1.582 3.928V80h-2.808zm-1.187-6.83l-1.555.054c-1.17.035-2.04.246-2.61.632-.572.387-.858.976-.858 1.767 0 1.134.65 1.7 1.951 1.7.932 0 1.675-.267 2.228-.803.563-.537.844-1.248.844-2.136V73.17zm7.251-2.003c0-3.384.642-5.95 1.925-7.7 1.292-1.757 3.305-2.869 6.038-3.335 1.327-.228 3.31-.518 5.946-.87l.461 3.507c-1.142.132-3.168.413-6.077.844-1.108.176-1.934.44-2.479.79-.545.352-.953.853-1.226 1.504-.264.65-.426 1.516-.488 2.597h.198a4.67 4.67 0 011.846-1.661 5.386 5.386 0 012.465-.58c1.82 0 3.234.558 4.245 1.674 1.01 1.107 1.516 2.698 1.516 4.773 0 2.39-.641 4.249-1.924 5.576-1.275 1.319-3.037 1.978-5.287 1.978s-4.008-.804-5.274-2.413c-1.256-1.617-1.885-3.845-1.885-6.684zm7.396 5.84c1.907 0 2.861-1.314 2.861-3.942 0-2.557-.861-3.836-2.584-3.836-.475 0-.95.11-1.424.33-.466.22-.896.51-1.292.87-.386.351-.672.707-.857 1.068 0 1.784.286 3.15.857 4.1.572.94 1.385 1.41 2.44 1.41zm13.5-4.403c0 1.459.237 2.562.712 3.31.484.746 1.266 1.12 2.347 1.12 1.072 0 1.841-.37 2.307-1.108.474-.747.712-1.854.712-3.322 0-1.459-.238-2.553-.712-3.283-.475-.73-1.253-1.094-2.334-1.094-1.072 0-1.845.365-2.32 1.094-.475.721-.712 1.815-.712 3.283zm10.191 0c0 2.4-.633 4.276-1.898 5.63-1.266 1.353-3.028 2.03-5.287 2.03-1.415 0-2.663-.308-3.744-.923-1.081-.624-1.912-1.516-2.492-2.676-.58-1.16-.87-2.514-.87-4.061 0-2.408.629-4.28 1.885-5.616 1.257-1.336 3.024-2.004 5.3-2.004 1.415 0 2.663.308 3.744.923 1.081.615 1.912 1.498 2.492 2.65.58 1.151.87 2.5.87 4.047zm15.517-7.343v3.019h-4.825V80h-4.021V68.28h-4.838v-3.02h13.684zM86 70.956h1.939c2.25 0 3.915.36 4.996 1.081 1.081.72 1.622 1.81 1.622 3.27 0 1.555-.54 2.729-1.622 3.52-1.081.782-2.698 1.173-4.852 1.173H81.98V65.26H86v5.696zm4.536 4.403c0-.57-.229-.984-.686-1.239-.457-.255-1.138-.382-2.043-.382H86v3.48h1.858c1.785 0 2.677-.62 2.677-1.859zM100.712 80h-4.02V65.26h4.02V80zm20.475-2.94v-8.78h-3.02a38.084 38.084 0 01-.909 4.654 18.918 18.918 0 01-1.582 4.126h5.511zm6.183 8.227h-3.613V80h-9.914v5.287h-3.612V77.06h1.239c.844-1.31 1.551-2.962 2.123-4.957.571-1.995.971-4.276 1.199-6.842h10.416v11.8h2.162v8.226zM143.084 80h-4.021V68.28h-3.704c-.281 3.296-.624 5.757-1.028 7.383-.405 1.617-.945 2.79-1.622 3.52-.668.72-1.547 1.08-2.637 1.08-.931 0-1.696-.14-2.294-.421v-3.217a3.4 3.4 0 001.292.264c.501 0 .919-.36 1.253-1.081.343-.721.646-1.92.909-3.6.273-1.687.506-4.003.699-6.947h11.153V80zm6.474 0h-4.351l3.968-5.827c-.949-.396-1.67-.967-2.162-1.714-.483-.747-.725-1.626-.725-2.637 0-1.424.532-2.54 1.595-3.348 1.073-.809 2.532-1.213 4.377-1.213h6.856V80h-4.021v-5.484h-2.215L149.558 80zm.672-10.151c0 .615.242 1.098.725 1.45.483.343 1.116.514 1.899.514h2.241v-3.718h-2.756c-.659 0-1.177.163-1.555.488-.369.316-.554.738-.554 1.266zm29.333 7.211v-8.78h-3.019a38.275 38.275 0 01-.909 4.654 18.969 18.969 0 01-1.582 4.126h5.51zm6.184 8.227h-3.613V80h-9.914v5.287h-3.612V77.06h1.239c.844-1.31 1.551-2.962 2.123-4.957.571-1.995.971-4.276 1.199-6.842h10.415v11.8h2.163v8.226zm5.721-12.683c0 1.459.238 2.562.712 3.31.484.746 1.266 1.12 2.347 1.12 1.072 0 1.841-.37 2.307-1.108.475-.747.712-1.854.712-3.322 0-1.459-.237-2.553-.712-3.283s-1.252-1.094-2.334-1.094c-1.072 0-1.845.365-2.32 1.094-.474.721-.712 1.815-.712 3.283zm10.191 0c0 2.4-.633 4.276-1.898 5.63-1.266 1.353-3.028 2.03-5.287 2.03-1.415 0-2.663-.308-3.744-.923-1.081-.624-1.912-1.516-2.492-2.676-.58-1.16-.87-2.514-.87-4.061 0-2.408.629-4.28 1.885-5.616 1.257-1.336 3.024-2.004 5.3-2.004 1.415 0 2.663.308 3.744.923 1.081.615 1.912 1.498 2.492 2.65.58 1.151.87 2.5.87 4.047zM223.557 80H219.8V68.385l-.211.818c-.475 1.854-.901 3.256-1.279 4.205L215.7 80h-2.861l-2.65-6.644c-.378-.967-.782-2.325-1.213-4.074l-.25-.897V80h-3.745V65.26h5.538l2.531 6.29c.263.676.505 1.454.725 2.333.228.879.382 1.63.461 2.254.29-1.318.514-2.263.673-2.834.167-.58.347-1.112.54-1.596.194-.483 1.068-2.632 2.624-6.446h5.484V80zm13.592 0l-.777-2.004h-.106c-.677.853-1.375 1.446-2.096 1.78-.712.325-1.644.488-2.795.488-1.415 0-2.531-.405-3.349-1.213-.808-.809-1.213-1.96-1.213-3.454 0-1.565.545-2.716 1.635-3.454 1.099-.748 2.751-1.16 4.957-1.24l2.558-.079v-.646c0-1.494-.765-2.241-2.294-2.241-1.178 0-2.562.356-4.153 1.068l-1.331-2.716c1.696-.888 3.577-1.332 5.642-1.332 1.978 0 3.494.431 4.548 1.293 1.055.86 1.583 2.17 1.583 3.928V80h-2.809zm-1.186-6.83l-1.556.054c-1.169.035-2.039.246-2.61.632-.571.387-.857.976-.857 1.767 0 1.134.65 1.7 1.951 1.7.932 0 1.674-.267 2.228-.803.563-.537.844-1.248.844-2.136V73.17z" fill="#000"/></svg>