<svg width="240" height="87" viewBox="0 0 240 87" fill="none" xmlns="http://www.w3.org/2000/svg">
<path d="M30.1011 20L25.4605 4.87842H25.3418C25.5088 7.95459 25.5923 10.0068 25.5923 11.0352V20H21.9404V0.725589H27.5039L32.0654 15.4648H32.1445L36.9829 0.725589H42.5464V20H38.7363V10.877C38.7363 10.4463 38.7407 9.94971 38.7495 9.38721C38.7671 8.82471 38.8286 7.33057 38.9341 4.90479H38.8154L33.8452 20H30.1011ZM50.9839 5.26074V11.0879C50.9839 11.7031 50.8828 13.2061 50.6807 15.5967L57.4834 5.26074H62.3218V20H58.4326V14.1201C58.4326 13.0742 58.5205 11.5977 58.6963 9.69043L51.9199 20H47.0947V5.26074H50.9839ZM79.7505 20H75.7295V8.27979H72.0249C71.7437 11.5757 71.4009 14.0366 70.9966 15.6626C70.5923 17.2798 70.0518 18.4531 69.375 19.1826C68.707 19.9033 67.8281 20.2637 66.7383 20.2637C65.8066 20.2637 65.042 20.123 64.4443 19.8418V16.625C64.875 16.8008 65.3057 16.8887 65.7363 16.8887C66.2373 16.8887 66.6548 16.5283 66.9888 15.8076C67.3316 15.0869 67.6348 13.8872 67.8984 12.2085C68.1709 10.521 68.4038 8.20508 68.5972 5.26074H79.7505V20ZM88.0034 10.9561H89.9414C92.1914 10.9561 93.8569 11.3164 94.938 12.0371C96.019 12.7578 96.5596 13.8477 96.5596 15.3066C96.5596 16.8623 96.019 18.0356 94.938 18.8267C93.8569 19.6089 92.2398 20 90.0864 20H83.9824V5.26074H88.0034V10.9561ZM92.5386 15.3594C92.5386 14.7881 92.3101 14.375 91.853 14.1201C91.396 13.8652 90.7149 13.7378 89.8096 13.7378H88.0034V17.2183H89.8623C91.6465 17.2183 92.5386 16.5986 92.5386 15.3594ZM102.716 20H98.6953V5.26074H102.716V20ZM113.052 7.84473C112.2 7.84473 111.532 8.11719 111.048 8.66211C110.565 9.19824 110.288 9.96289 110.218 10.9561H115.86C115.843 9.96289 115.583 9.19824 115.083 8.66211C114.582 8.11719 113.905 7.84473 113.052 7.84473ZM113.619 20.2637C111.246 20.2637 109.392 19.6089 108.056 18.2993C106.72 16.9897 106.052 15.1353 106.052 12.7358C106.052 10.2661 106.667 8.35889 107.897 7.01416C109.137 5.66065 110.846 4.98389 113.026 4.98389C115.109 4.98389 116.73 5.57715 117.891 6.76367C119.051 7.9502 119.631 9.58936 119.631 11.6812V13.6323H110.125C110.169 14.7749 110.508 15.667 111.141 16.3086C111.773 16.9502 112.661 17.271 113.804 17.271C114.691 17.271 115.531 17.1787 116.322 16.9941C117.113 16.8096 117.939 16.5151 118.8 16.1108V19.2222C118.097 19.5737 117.346 19.833 116.546 20C115.746 20.1758 114.771 20.2637 113.619 20.2637ZM151.865 20H129.914V5.26074H133.935V16.981H138.879V5.26074H142.9V16.981H147.844V5.26074H151.865V20ZM168.292 5.26074V8.27979H163.466V20H159.445V8.27979H154.607V5.26074H168.292ZM168.938 5.26074H173.341L176.123 13.5532C176.36 14.2739 176.522 15.1265 176.61 16.1108H176.689C176.786 15.2056 176.975 14.353 177.256 13.5532L179.985 5.26074H184.296L178.061 21.8853C177.489 23.4233 176.672 24.5747 175.608 25.3394C174.554 26.104 173.319 26.4863 171.904 26.4863C171.209 26.4863 170.528 26.4116 169.86 26.2622V23.0718C170.344 23.186 170.871 23.2432 171.442 23.2432C172.154 23.2432 172.774 23.0234 173.301 22.584C173.837 22.1533 174.255 21.4985 174.554 20.6196L174.791 19.8945L168.938 5.26074ZM196.083 5.26074H200.512L194.672 12.3271L201.026 20H196.465L190.44 12.5249V20H186.419V5.26074H190.44V12.4194L196.083 5.26074ZM207.025 5.26074V11.0879C207.025 11.7031 206.924 13.2061 206.722 15.5967L213.524 5.26074H218.363V20H214.474V14.1201C214.474 13.0742 214.562 11.5977 214.737 9.69043L207.961 20H203.136V5.26074H207.025ZM74.5825 50.2637C72.8511 50.2637 71.4932 49.6353 70.5088 48.3784H70.2979C70.4385 49.6089 70.5088 50.3208 70.5088 50.5142V56.4863H66.4878V35.2607H69.7573L70.3242 37.1724H70.5088C71.4492 35.7134 72.8423 34.9839 74.688 34.9839C76.4282 34.9839 77.7905 35.6563 78.7749 37.001C79.7593 38.3457 80.2515 40.2134 80.2515 42.604C80.2515 44.1772 80.0186 45.5439 79.5527 46.7041C79.0957 47.8643 78.4409 48.7476 77.5884 49.354C76.7358 49.9604 75.7339 50.2637 74.5825 50.2637ZM73.396 38.2007C72.4028 38.2007 71.6777 38.5083 71.2207 39.1235C70.7637 39.73 70.5264 40.7363 70.5088 42.1426V42.5776C70.5088 44.1597 70.7417 45.2935 71.2075 45.979C71.6821 46.6646 72.4292 47.0073 73.4487 47.0073C75.2505 47.0073 76.1514 45.522 76.1514 42.5513C76.1514 41.1011 75.9273 40.0156 75.479 39.2949C75.0396 38.5654 74.3452 38.2007 73.396 38.2007ZM81.4644 35.2607H85.8677L88.6494 43.5532C88.8867 44.2739 89.0493 45.1265 89.1372 46.1108H89.2163C89.313 45.2056 89.502 44.353 89.7832 43.5532L92.5122 35.2607H96.8232L90.5874 51.8853C90.0161 53.4233 89.1987 54.5747 88.1353 55.3394C87.0806 56.104 85.8457 56.4863 84.4307 56.4863C83.7363 56.4863 83.0552 56.4116 82.3872 56.2622V53.0718C82.8706 53.186 83.398 53.2432 83.9692 53.2432C84.6812 53.2432 85.3008 53.0234 85.8281 52.584C86.3643 52.1533 86.7817 51.4985 87.0806 50.6196L87.3179 49.8945L81.4644 35.2607ZM102.479 35.2607V40.6528C102.479 41.936 103.072 42.5776 104.259 42.5776C105.032 42.5776 105.749 42.4897 106.408 42.314C107.076 42.1382 107.748 41.9097 108.425 41.6284V35.2607H112.446V50H108.425V44.1465C107.493 44.6387 106.627 44.9858 105.828 45.188C105.028 45.3901 104.254 45.4912 103.507 45.4912C101.899 45.4912 100.655 45.0825 99.7764 44.2651C98.8975 43.439 98.458 42.2656 98.458 40.7451V35.2607H102.479ZM120.686 35.2607V40.9297H126.302V35.2607H130.323V50H126.302V43.9224H120.686V50H116.665V35.2607H120.686ZM137.745 42.604C137.745 44.063 137.982 45.166 138.457 45.9131C138.94 46.6602 139.723 47.0337 140.804 47.0337C141.876 47.0337 142.645 46.6646 143.111 45.9263C143.585 45.1792 143.823 44.0718 143.823 42.604C143.823 41.145 143.585 40.0508 143.111 39.3213C142.636 38.5918 141.858 38.2271 140.777 38.2271C139.705 38.2271 138.932 38.5918 138.457 39.3213C137.982 40.042 137.745 41.1362 137.745 42.604ZM147.936 42.604C147.936 45.0034 147.303 46.8799 146.038 48.2334C144.772 49.5869 143.01 50.2637 140.751 50.2637C139.336 50.2637 138.088 49.9561 137.007 49.3408C135.926 48.7168 135.095 47.8247 134.515 46.6646C133.935 45.5044 133.645 44.1509 133.645 42.604C133.645 40.1958 134.273 38.3237 135.53 36.9878C136.787 35.6519 138.554 34.9839 140.83 34.9839C142.245 34.9839 143.493 35.2915 144.574 35.9067C145.655 36.522 146.486 37.4053 147.066 38.5566C147.646 39.708 147.936 41.0571 147.936 42.604ZM155.147 35.2607V41.0879C155.147 41.7031 155.046 43.2061 154.844 45.5967L161.647 35.2607H166.485V50H162.596V44.1201C162.596 43.0742 162.684 41.5977 162.86 39.6904L156.083 50H151.258V35.2607H155.147ZM165.299 28.9194C165.132 30.563 164.512 31.7627 163.44 32.5186C162.368 33.2656 160.821 33.6392 158.799 33.6392C156.716 33.6392 155.174 33.2788 154.172 32.5581C153.179 31.8374 152.621 30.6245 152.498 28.9194H156.097C156.158 29.8247 156.382 30.4619 156.769 30.8311C157.165 31.1914 157.868 31.3716 158.878 31.3716C159.766 31.3716 160.425 31.1738 160.856 30.7783C161.295 30.374 161.563 29.7544 161.66 28.9194H165.299ZM8.20314 80.2637C6.47169 80.2637 5.11378 79.6353 4.12941 78.3784H3.91847C4.0591 79.6089 4.12941 80.3208 4.12941 80.5142V86.4863H0.108413V65.2607H3.37794L3.94484 67.1724H4.12941C5.06984 65.7134 6.4629 64.9839 8.30861 64.9839C10.0488 64.9839 11.4111 65.6563 12.3955 67.001C13.3799 68.3457 13.8721 70.2134 13.8721 72.604C13.8721 74.1772 13.6392 75.5439 13.1734 76.7041C12.7163 77.8643 12.0615 78.7476 11.209 79.354C10.3565 79.9604 9.35451 80.2637 8.20314 80.2637ZM7.01662 68.2007C6.02345 68.2007 5.29835 68.5083 4.84132 69.1235C4.38429 69.73 4.14699 70.7363 4.12941 72.1426V72.5776C4.12941 74.1597 4.36232 75.2935 4.82814 75.979C5.30275 76.6646 6.04982 77.0073 7.06935 77.0073C8.87111 77.0073 9.77199 75.522 9.77199 72.5513C9.77199 71.1011 9.54787 70.0156 9.09962 69.2949C8.66017 68.5654 7.96583 68.2007 7.01662 68.2007ZM26.5547 80L25.7769 77.9961H25.6714C24.9946 78.8486 24.2959 79.4419 23.5752 79.7759C22.8633 80.1011 21.9317 80.2637 20.7803 80.2637C19.3652 80.2637 18.249 79.8594 17.4317 79.0508C16.6231 78.2422 16.2188 77.0908 16.2188 75.5967C16.2188 74.0322 16.7637 72.8809 17.8535 72.1426C18.9522 71.3955 20.6045 70.9824 22.8106 70.9033L25.3682 70.8242V70.1782C25.3682 68.6841 24.6035 67.937 23.0742 67.937C21.8965 67.937 20.5122 68.293 18.9214 69.0049L17.5899 66.2891C19.2861 65.4014 21.167 64.9575 23.2324 64.9575C25.21 64.9575 26.7261 65.3882 27.7808 66.2495C28.8355 67.1108 29.3628 68.4204 29.3628 70.1782V80H26.5547ZM25.3682 73.1709L23.8125 73.2236C22.6436 73.2588 21.7734 73.4697 21.2022 73.8564C20.6309 74.2432 20.3452 74.832 20.3452 75.623C20.3452 76.7568 20.9956 77.3237 22.2964 77.3237C23.228 77.3237 23.9707 77.0557 24.5244 76.5195C25.0869 75.9834 25.3682 75.2715 25.3682 74.3838V73.1709ZM32.6192 71.167C32.6192 67.7832 33.2608 65.2168 34.544 63.4678C35.8359 61.71 37.8486 60.5981 40.582 60.1323C41.9092 59.9038 43.8911 59.6138 46.5278 59.2622L46.9893 62.769C45.8467 62.9009 43.8208 63.1821 40.9116 63.6128C39.8042 63.7886 38.978 64.0522 38.4331 64.4038C37.8882 64.7554 37.4795 65.2563 37.207 65.9067C36.9434 66.5571 36.7808 67.4229 36.7192 68.5039H36.917C37.3828 67.7832 37.9981 67.2295 38.7627 66.8428C39.5274 66.4561 40.3491 66.2627 41.228 66.2627C43.0474 66.2627 44.4624 66.8208 45.4732 67.937C46.4839 69.0444 46.9893 70.6353 46.9893 72.7095C46.9893 75.1001 46.3477 76.959 45.0645 78.2861C43.79 79.6045 42.0278 80.2637 39.7778 80.2637C37.5278 80.2637 35.77 79.4595 34.5044 77.8511C33.2476 76.2339 32.6192 74.0059 32.6192 71.167ZM40.0151 77.0073C41.9224 77.0073 42.876 75.6934 42.876 73.0654C42.876 70.5078 42.0147 69.229 40.292 69.229C39.8174 69.229 39.3428 69.3389 38.8682 69.5586C38.4024 69.7783 37.9717 70.0684 37.5762 70.4287C37.1895 70.7803 36.9038 71.1362 36.7192 71.4966C36.7192 73.2808 37.0049 74.6475 37.5762 75.5967C38.1475 76.5371 38.9605 77.0073 40.0151 77.0073ZM53.5151 72.604C53.5151 74.063 53.7524 75.166 54.2271 75.9131C54.7105 76.6602 55.4927 77.0337 56.5737 77.0337C57.646 77.0337 58.415 76.6646 58.8809 75.9263C59.3555 75.1792 59.5928 74.0718 59.5928 72.604C59.5928 71.145 59.3555 70.0508 58.8809 69.3213C58.4063 68.5918 57.6284 68.2271 56.5474 68.2271C55.4751 68.2271 54.7017 68.5918 54.2271 69.3213C53.7524 70.042 53.5151 71.1362 53.5151 72.604ZM63.7061 72.604C63.7061 75.0034 63.0732 76.8799 61.8076 78.2334C60.542 79.5869 58.7798 80.2637 56.521 80.2637C55.106 80.2637 53.8579 79.9561 52.7769 79.3408C51.6958 78.7168 50.8652 77.8247 50.2852 76.6646C49.7051 75.5044 49.415 74.1509 49.415 72.604C49.415 70.1958 50.0435 68.3237 51.3003 66.9878C52.5571 65.6519 54.3237 64.9839 56.6001 64.9839C58.0151 64.9839 59.2632 65.2915 60.3442 65.9067C61.4253 66.522 62.2559 67.4053 62.8359 68.5566C63.416 69.708 63.7061 71.0571 63.7061 72.604ZM79.2232 65.2607V68.2798H74.398V80H70.377V68.2798H65.5386V65.2607H79.2232ZM85.9995 70.9561H87.9375C90.1875 70.9561 91.853 71.3164 92.9341 72.0371C94.0151 72.7578 94.5557 73.8477 94.5557 75.3066C94.5557 76.8623 94.0151 78.0356 92.9341 78.8267C91.853 79.6089 90.2358 80 88.0825 80H81.9785V65.2607H85.9995V70.9561ZM90.5347 75.3594C90.5347 74.7881 90.3062 74.375 89.8491 74.1201C89.3921 73.8652 88.7109 73.7378 87.8057 73.7378H85.9995V77.2183H87.8584C89.6426 77.2183 90.5347 76.5986 90.5347 75.3594ZM100.712 80H96.6914V65.2607H100.712V80ZM121.187 77.0601V68.2798H118.167C117.948 69.9146 117.645 71.4658 117.258 72.9336C116.88 74.4014 116.353 75.7769 115.676 77.0601H121.187ZM127.37 85.2866H123.757V80H113.843V85.2866H110.231V77.0601H111.47C112.314 75.7505 113.021 74.0981 113.593 72.103C114.164 70.1079 114.564 67.8272 114.792 65.2607H125.208V77.0601H127.37V85.2866ZM143.084 80H139.063V68.2798H135.359C135.078 71.5757 134.735 74.0366 134.331 75.6626C133.926 77.2798 133.386 78.4531 132.709 79.1826C132.041 79.9033 131.162 80.2637 130.072 80.2637C129.141 80.2637 128.376 80.123 127.778 79.8418V76.625C128.209 76.8008 128.64 76.8887 129.07 76.8887C129.571 76.8887 129.989 76.5283 130.323 75.8076C130.666 75.0869 130.969 73.8872 131.232 72.2085C131.505 70.521 131.738 68.2051 131.931 65.2607H143.084V80ZM149.558 80H145.207L149.175 74.1729C148.226 73.7773 147.505 73.2061 147.013 72.459C146.53 71.7119 146.288 70.833 146.288 69.8223C146.288 68.3984 146.82 67.2822 147.883 66.4736C148.956 65.665 150.415 65.2607 152.26 65.2607H159.116V80H155.095V74.5156H152.88L149.558 80ZM150.23 69.8486C150.23 70.4639 150.472 70.9473 150.955 71.2988C151.438 71.6416 152.071 71.813 152.854 71.813H155.095V68.0952H152.339C151.68 68.0952 151.162 68.2578 150.784 68.583C150.415 68.8994 150.23 69.3213 150.23 69.8486ZM179.563 77.0601V68.2798H176.544C176.325 69.9146 176.021 71.4658 175.635 72.9336C175.257 74.4014 174.729 75.7769 174.053 77.0601H179.563ZM185.747 85.2866H182.134V80H172.22V85.2866H168.608V77.0601H169.847C170.691 75.7505 171.398 74.0981 171.97 72.103C172.541 70.1079 172.941 67.8272 173.169 65.2607H183.584V77.0601H185.747V85.2866ZM191.468 72.604C191.468 74.063 191.706 75.166 192.18 75.9131C192.664 76.6602 193.446 77.0337 194.527 77.0337C195.599 77.0337 196.368 76.6646 196.834 75.9263C197.309 75.1792 197.546 74.0718 197.546 72.604C197.546 71.145 197.309 70.0508 196.834 69.3213C196.359 68.5918 195.582 68.2271 194.5 68.2271C193.428 68.2271 192.655 68.5918 192.18 69.3213C191.706 70.042 191.468 71.1362 191.468 72.604ZM201.659 72.604C201.659 75.0034 201.026 76.8799 199.761 78.2334C198.495 79.5869 196.733 80.2637 194.474 80.2637C193.059 80.2637 191.811 79.9561 190.73 79.3408C189.649 78.7168 188.818 77.8247 188.238 76.6646C187.658 75.5044 187.368 74.1509 187.368 72.604C187.368 70.1958 187.997 68.3237 189.253 66.9878C190.51 65.6519 192.277 64.9839 194.553 64.9839C195.968 64.9839 197.216 65.2915 198.297 65.9067C199.378 66.522 200.209 67.4053 200.789 68.5566C201.369 69.708 201.659 71.0571 201.659 72.604ZM223.557 80H219.8V68.3853L219.589 69.2026C219.114 71.0571 218.688 72.459 218.31 73.4082L215.7 80H212.839L210.189 73.3555C209.811 72.3887 209.407 71.0308 208.976 69.2817L208.726 68.3853V80H204.981V65.2607H210.519L213.05 71.5493C213.313 72.2261 213.555 73.0039 213.775 73.8828C214.003 74.7617 214.157 75.5132 214.236 76.1372C214.526 74.8188 214.75 73.874 214.909 73.3027C215.076 72.7227 215.256 72.1909 215.449 71.7075C215.643 71.2241 216.517 69.0752 218.073 65.2607H223.557V80ZM237.149 80L236.372 77.9961H236.266C235.589 78.8486 234.891 79.4419 234.17 79.7759C233.458 80.1011 232.526 80.2637 231.375 80.2637C229.96 80.2637 228.844 79.8594 228.026 79.0508C227.218 78.2422 226.813 77.0908 226.813 75.5967C226.813 74.0322 227.358 72.8809 228.448 72.1426C229.547 71.3955 231.199 70.9824 233.405 70.9033L235.963 70.8242V70.1782C235.963 68.6841 235.198 67.937 233.669 67.937C232.491 67.937 231.107 68.293 229.516 69.0049L228.185 66.2891C229.881 65.4014 231.762 64.9575 233.827 64.9575C235.805 64.9575 237.321 65.3882 238.375 66.2495C239.43 67.1108 239.958 68.4204 239.958 70.1782V80H237.149ZM235.963 73.1709L234.407 73.2236C233.238 73.2588 232.368 73.4697 231.797 73.8564C231.226 74.2432 230.94 74.832 230.94 75.623C230.94 76.7568 231.59 77.3237 232.891 77.3237C233.823 77.3237 234.565 77.0557 235.119 76.5195C235.682 75.9834 235.963 75.2715 235.963 74.3838V73.1709Z" fill="black"/>
</svg>
