<svg width="491" height="95" viewBox="0 0 491 95" fill="none" xmlns="http://www.w3.org/2000/svg">
<path d="M13.6602 34L6.26958 9.91748H6.08061C6.34656 14.8166 6.47954 18.085 6.47954 19.7227V34H0.663619V3.30372H9.52397L16.7886 26.7773H16.9146L24.6202 3.30372H33.4805V34H27.4126V19.4707C27.4126 18.7848 27.4196 17.994 27.4336 17.0981C27.4616 16.2023 27.5596 13.8228 27.7276 9.95948H27.5386L19.6231 34H13.6602ZM46.918 10.5264V19.8066C46.918 20.7865 46.757 23.18 46.4351 26.9873L57.2691 10.5264H64.9746V34H58.7808V24.6357C58.7808 22.9701 58.9208 20.6185 59.2007 17.5811L48.4087 34H40.7242V10.5264H46.918ZM92.7315 34H86.3277V15.3345H80.4278C79.9798 20.5835 79.4339 24.5028 78.7901 27.0923C78.1462 29.6678 77.2853 31.5365 76.2075 32.6982C75.1437 33.846 73.744 34.4199 72.0083 34.4199C70.5246 34.4199 69.3068 34.196 68.355 33.748V28.625C69.0409 28.9049 69.7268 29.0449 70.4126 29.0449C71.2105 29.0449 71.8754 28.471 72.4073 27.3232C72.9532 26.1755 73.4361 24.2648 73.856 21.5913C74.2899 18.9038 74.6608 15.2155 74.9688 10.5264H92.7315V34ZM105.875 19.5967H108.961C112.545 19.5967 115.197 20.1706 116.919 21.3184C118.641 22.4661 119.501 24.2018 119.501 26.5254C119.501 29.0029 118.641 30.8716 116.919 32.1313C115.197 33.3771 112.622 34 109.192 34H99.4712V10.5264H105.875V19.5967ZM113.098 26.6094C113.098 25.6995 112.734 25.0417 112.006 24.6357C111.278 24.2298 110.193 24.0269 108.751 24.0269H105.875V29.5698H108.835C111.677 29.5698 113.098 28.583 113.098 26.6094ZM129.307 34H122.903V10.5264H129.307V34ZM145.768 14.6416C144.41 14.6416 143.346 15.0755 142.576 15.9434C141.806 16.7972 141.365 18.015 141.253 19.5967H150.24C150.212 18.015 149.799 16.7972 149.001 15.9434C148.203 15.0755 147.125 14.6416 145.768 14.6416ZM146.67 34.4199C142.891 34.4199 139.938 33.3771 137.81 31.2915C135.682 29.2059 134.619 26.2524 134.619 22.4312C134.619 18.4979 135.598 15.4605 137.558 13.3189C139.532 11.1633 142.254 10.0855 145.726 10.0855C149.043 10.0855 151.626 11.0303 153.473 12.9199C155.321 14.8096 156.245 17.4201 156.245 20.7515V23.8589H141.106C141.176 25.6785 141.715 27.0993 142.723 28.1211C143.731 29.1429 145.145 29.6538 146.964 29.6538C148.378 29.6538 149.715 29.5068 150.975 29.2129C152.234 28.9189 153.55 28.45 154.922 27.8062V32.7612C153.802 33.3211 152.605 33.734 151.332 34C150.058 34.2799 148.504 34.4199 146.67 34.4199ZM207.58 34H172.622V10.5264H179.025V29.1919H186.899V10.5264H193.303V29.1919H201.176V10.5264H207.58V34ZM233.741 10.5264V15.3345H226.057V34H219.653V15.3345H211.947V10.5264H233.741ZM234.77 10.5264H241.783L246.213 23.7329C246.591 24.8807 246.85 26.2384 246.99 27.8062H247.116C247.27 26.3644 247.571 25.0067 248.019 23.7329L252.365 10.5264H259.23L249.299 37.0024C248.389 39.452 247.088 41.2856 245.394 42.5034C243.714 43.7212 241.748 44.3301 239.494 44.3301C238.388 44.3301 237.304 44.2111 236.24 43.9731V38.8921C237.01 39.0741 237.849 39.165 238.759 39.165C239.893 39.165 240.88 38.8151 241.72 38.1152C242.574 37.4294 243.238 36.3866 243.714 34.9868L244.092 33.832L234.77 10.5264ZM278.001 10.5264H285.056L275.754 21.7803L285.875 34H278.61L269.015 22.0952V34H262.611V10.5264H269.015V21.9272L278.001 10.5264ZM295.428 10.5264V19.8066C295.428 20.7865 295.267 23.18 294.945 26.9873L305.779 10.5264H313.484V34H307.291V24.6357C307.291 22.9701 307.43 20.6185 307.71 17.5811L296.918 34H289.234V10.5264H295.428ZM344.286 34.4199C341.528 34.4199 339.366 33.4191 337.798 31.4175H337.462C337.686 33.3771 337.798 34.5109 337.798 34.8188V44.3301H331.394V10.5264H336.601L337.504 13.5708H337.798C339.296 11.2472 341.514 10.0855 344.454 10.0855C347.225 10.0855 349.395 11.1563 350.962 13.2979C352.53 15.4395 353.314 18.4139 353.314 22.2212C353.314 24.7267 352.943 26.9033 352.201 28.751C351.473 30.5986 350.43 32.0054 349.073 32.9712C347.715 33.937 346.119 34.4199 344.286 34.4199ZM342.396 15.2085C340.814 15.2085 339.66 15.6984 338.932 16.6782C338.204 17.644 337.826 19.2467 337.798 21.4863V22.1792C337.798 24.6987 338.169 26.5044 338.911 27.5962C339.667 28.688 340.856 29.2339 342.48 29.2339C345.349 29.2339 346.784 26.8683 346.784 22.1372C346.784 19.8276 346.427 18.099 345.713 16.9512C345.014 15.7894 343.908 15.2085 342.396 15.2085ZM355.246 10.5264H362.258L366.688 23.7329C367.066 24.8807 367.325 26.2384 367.465 27.8062H367.591C367.745 26.3644 368.046 25.0067 368.494 23.7329L372.84 10.5264H379.706L369.775 37.0024C368.865 39.452 367.563 41.2856 365.87 42.5034C364.19 43.7212 362.223 44.3301 359.97 44.3301C358.864 44.3301 357.779 44.2111 356.715 43.9731V38.8921C357.485 39.0741 358.325 39.165 359.235 39.165C360.369 39.165 361.355 38.8151 362.195 38.1152C363.049 37.4294 363.714 36.3866 364.19 34.9868L364.568 33.832L355.246 10.5264ZM388.713 10.5264V19.1138C388.713 21.1574 389.658 22.1792 391.548 22.1792C392.78 22.1792 393.92 22.0392 394.97 21.7593C396.034 21.4793 397.105 21.1154 398.183 20.6675V10.5264H404.586V34H398.183V24.6777C396.699 25.4616 395.32 26.0145 394.046 26.3364C392.773 26.6584 391.541 26.8193 390.351 26.8193C387.79 26.8193 385.809 26.1685 384.409 24.8667C383.009 23.5509 382.31 21.6823 382.31 19.2607V10.5264H388.713ZM417.709 10.5264V19.5547H426.653V10.5264H433.057V34H426.653V24.3208H417.709V34H411.305V10.5264H417.709ZM444.878 22.2212C444.878 24.5448 445.256 26.3014 446.012 27.4912C446.782 28.681 448.027 29.2759 449.749 29.2759C451.457 29.2759 452.681 28.688 453.423 27.5122C454.179 26.3224 454.557 24.5588 454.557 22.2212C454.557 19.8976 454.179 18.155 453.423 16.9932C452.667 15.8314 451.429 15.2505 449.707 15.2505C447.999 15.2505 446.768 15.8314 446.012 16.9932C445.256 18.141 444.878 19.8836 444.878 22.2212ZM461.108 22.2212C461.108 26.0425 460.1 29.0309 458.084 31.1865C456.069 33.3421 453.262 34.4199 449.665 34.4199C447.411 34.4199 445.424 33.93 443.702 32.9502C441.98 31.9564 440.658 30.5356 439.734 28.688C438.81 26.8403 438.348 24.6847 438.348 22.2212C438.348 18.3859 439.349 15.4045 441.351 13.2769C443.352 11.1493 446.166 10.0855 449.791 10.0855C452.045 10.0855 454.032 10.5754 455.754 11.5552C457.476 12.535 458.798 13.9417 459.722 15.7754C460.646 17.6091 461.108 19.7577 461.108 22.2212ZM472.593 10.5264V19.8066C472.593 20.7865 472.432 23.18 472.11 26.9873L482.944 10.5264H490.649V34H484.456V24.6357C484.456 22.9701 484.595 20.6185 484.875 17.5811L474.083 34H466.399V10.5264H472.593ZM488.76 0.427252C488.494 3.04476 487.507 4.95541 485.799 6.15918C484.092 7.34896 481.628 7.94385 478.409 7.94385C475.091 7.94385 472.635 7.36996 471.039 6.22217C469.457 5.07439 468.568 3.14275 468.372 0.427252H474.104C474.202 1.86898 474.559 2.88379 475.175 3.47169C475.805 4.04558 476.925 4.33252 478.535 4.33252C479.948 4.33252 480.998 4.01758 481.684 3.3877C482.384 2.74382 482.811 1.757 482.965 0.427252H488.76ZM72.9532 84.4199C70.1957 84.4199 68.0331 83.4191 66.4654 81.4175H66.1294C66.3534 83.3771 66.4654 84.5109 66.4654 84.8188V94.3301H60.0616V60.5264H65.2686L66.1714 63.5708H66.4654C67.9631 61.2472 70.1817 60.0855 73.1211 60.0855C75.8926 60.0855 78.0622 61.1563 79.6299 63.2979C81.1976 65.4395 81.9815 68.4139 81.9815 72.2212C81.9815 74.7267 81.6105 76.9033 80.8687 78.751C80.1408 80.5986 79.098 82.0054 77.7403 82.9712C76.3825 83.937 74.7868 84.4199 72.9532 84.4199ZM71.0635 65.2085C69.4818 65.2085 68.327 65.6984 67.5991 66.6782C66.8713 67.644 66.4934 69.2467 66.4654 71.4863V72.1792C66.4654 74.6987 66.8363 76.5044 67.5782 77.5962C68.334 78.688 69.5238 79.2339 71.1475 79.2339C74.017 79.2339 75.4517 76.8683 75.4517 72.1372C75.4517 69.8276 75.0948 68.099 74.3809 66.9512C73.681 65.7894 72.5752 65.2085 71.0635 65.2085ZM102.18 84L100.941 80.8086H100.773C99.6952 82.1663 98.5824 83.1112 97.4346 83.6431C96.3008 84.161 94.8171 84.4199 92.9834 84.4199C90.7298 84.4199 88.9522 83.776 87.6504 82.4883C86.3627 81.2005 85.7188 79.3669 85.7188 76.9873C85.7188 74.4958 86.5866 72.6621 88.3223 71.4863C90.072 70.2966 92.7035 69.6387 96.2168 69.5127L100.29 69.3867V68.3579C100.29 65.9784 99.0723 64.7886 96.6367 64.7886C94.7611 64.7886 92.5565 65.3555 90.023 66.4893L87.9024 62.1641C90.6039 60.7503 93.5993 60.0435 96.8887 60.0435C100.038 60.0435 102.453 60.7293 104.132 62.1011C105.812 63.4728 106.652 65.5584 106.652 68.3579V84H102.18ZM100.29 73.124L97.8125 73.208C95.9509 73.264 94.5651 73.5999 93.6553 74.2158C92.7455 74.8317 92.2906 75.7695 92.2906 77.0293C92.2906 78.835 93.3264 79.7378 95.398 79.7378C96.8817 79.7378 98.0645 79.3109 98.9463 78.457C99.8422 77.6032 100.29 76.4694 100.29 75.0557V73.124ZM111.838 69.9326C111.838 64.5436 112.86 60.4564 114.903 57.6709C116.961 54.8714 120.166 53.1008 124.52 52.3589C126.633 51.995 129.79 51.533 133.989 50.9732L134.724 56.5581C132.904 56.7681 129.678 57.216 125.044 57.9019C123.281 58.1818 121.965 58.6017 121.097 59.1616C120.229 59.7215 119.578 60.5194 119.145 61.5552C118.725 62.591 118.466 63.9697 118.368 65.6914H118.683C119.425 64.5436 120.404 63.6618 121.622 63.0459C122.84 62.43 124.149 62.1221 125.548 62.1221C128.446 62.1221 130.699 63.0109 132.309 64.7886C133.919 66.5522 134.724 69.0858 134.724 72.3892C134.724 76.1965 133.702 79.1569 131.658 81.2705C129.629 83.3701 126.822 84.4199 123.239 84.4199C119.655 84.4199 116.856 83.1392 114.84 80.5776C112.839 78.0021 111.838 74.4538 111.838 69.9326ZM123.617 79.2339C126.654 79.2339 128.173 77.1413 128.173 72.9561C128.173 68.8828 126.801 66.8462 124.058 66.8462C123.302 66.8462 122.546 67.0212 121.79 67.3711C121.048 67.721 120.362 68.1829 119.732 68.7568C119.117 69.3167 118.662 69.8836 118.368 70.4575C118.368 73.299 118.823 75.4756 119.732 76.9873C120.642 78.485 121.937 79.2339 123.617 79.2339ZM145.117 72.2212C145.117 74.5448 145.495 76.3014 146.251 77.4912C147.02 78.681 148.266 79.2759 149.988 79.2759C151.695 79.2759 152.92 78.688 153.662 77.5122C154.418 76.3224 154.796 74.5588 154.796 72.2212C154.796 69.8976 154.418 68.155 153.662 66.9932C152.906 65.8314 151.667 65.2505 149.946 65.2505C148.238 65.2505 147.006 65.8314 146.251 66.9932C145.495 68.141 145.117 69.8836 145.117 72.2212ZM161.347 72.2212C161.347 76.0425 160.339 79.0309 158.323 81.1865C156.308 83.3421 153.501 84.4199 149.904 84.4199C147.65 84.4199 145.663 83.93 143.941 82.9502C142.219 81.9564 140.896 80.5356 139.973 78.688C139.049 76.8403 138.587 74.6847 138.587 72.2212C138.587 68.3859 139.588 65.4045 141.589 63.2769C143.591 61.1493 146.404 60.0855 150.03 60.0855C152.283 60.0855 154.271 60.5754 155.993 61.5552C157.714 62.535 159.037 63.9417 159.961 65.7754C160.885 67.6091 161.347 69.7577 161.347 72.2212ZM186.059 60.5264V65.3345H178.375V84H171.971V65.3345H164.265V60.5264H186.059ZM196.851 69.5967H199.937C203.521 69.5967 206.173 70.1706 207.895 71.3184C209.617 72.4661 210.478 74.2018 210.478 76.5254C210.478 79.0029 209.617 80.8716 207.895 82.1313C206.173 83.3771 203.598 84 200.168 84H190.447V60.5264H196.851V69.5967ZM204.074 76.6094C204.074 75.6995 203.71 75.0417 202.982 74.6357C202.254 74.2298 201.169 74.0269 199.728 74.0269H196.851V79.5698H199.812C202.653 79.5698 204.074 78.583 204.074 76.6094ZM220.283 84H213.879V60.5264H220.283V84ZM252.89 79.3179V65.3345H248.082C247.732 67.938 247.249 70.4085 246.633 72.7461C246.031 75.0837 245.191 77.2743 244.113 79.3179H252.89ZM262.737 92.4194H256.984V84H241.195V92.4194H235.442V79.3179H237.416C238.759 77.2323 239.886 74.6008 240.796 71.4233C241.706 68.2459 242.343 64.6136 242.707 60.5264H259.293V79.3179H262.737V92.4194ZM287.764 84H281.36V65.3345H275.46C275.013 70.5835 274.467 74.5028 273.823 77.0923C273.179 79.6678 272.318 81.5365 271.24 82.6982C270.176 83.846 268.777 84.4199 267.041 84.4199C265.557 84.4199 264.34 84.196 263.388 83.748V78.625C264.074 78.9049 264.759 79.0449 265.445 79.0449C266.243 79.0449 266.908 78.471 267.44 77.3232C267.986 76.1755 268.469 74.2648 268.889 71.5913C269.323 68.9038 269.694 65.2155 270.001 60.5264H287.764V84ZM298.073 84H291.145L297.464 74.7197C295.953 74.0898 294.805 73.18 294.021 71.9902C293.251 70.8005 292.866 69.4007 292.866 67.791C292.866 65.5234 293.713 63.7458 295.407 62.458C297.114 61.1703 299.438 60.5264 302.377 60.5264H313.295V84H306.892V75.2656H303.364L298.073 84ZM299.144 67.833C299.144 68.8128 299.529 69.5827 300.299 70.1426C301.069 70.6885 302.076 70.9614 303.322 70.9614H306.892V65.0405H302.503C301.454 65.0405 300.628 65.2995 300.026 65.8174C299.438 66.3213 299.144 66.9932 299.144 67.833ZM345.86 79.3179V65.3345H341.052C340.702 67.938 340.219 70.4085 339.603 72.7461C339.002 75.0837 338.162 77.2743 337.084 79.3179H345.86ZM355.707 92.4194H349.955V84H334.165V92.4194H328.413V79.3179H330.386C331.73 77.2323 332.857 74.6008 333.767 71.4233C334.676 68.2459 335.313 64.6136 335.677 60.5264H352.264V79.3179H355.707V92.4194ZM364.82 72.2212C364.82 74.5448 365.198 76.3014 365.954 77.4912C366.723 78.681 367.969 79.2759 369.691 79.2759C371.399 79.2759 372.623 78.688 373.365 77.5122C374.121 76.3224 374.499 74.5588 374.499 72.2212C374.499 69.8976 374.121 68.155 373.365 66.9932C372.609 65.8314 371.371 65.2505 369.649 65.2505C367.941 65.2505 366.709 65.8314 365.954 66.9932C365.198 68.141 364.82 69.8836 364.82 72.2212ZM381.05 72.2212C381.05 76.0425 380.042 79.0309 378.026 81.1865C376.011 83.3421 373.204 84.4199 369.607 84.4199C367.353 84.4199 365.366 83.93 363.644 82.9502C361.922 81.9564 360.6 80.5356 359.676 78.688C358.752 76.8403 358.29 74.6847 358.29 72.2212C358.29 68.3859 359.291 65.4045 361.292 63.2769C363.294 61.1493 366.108 60.0855 369.733 60.0855C371.986 60.0855 373.974 60.5754 375.696 61.5552C377.417 62.535 378.74 63.9417 379.664 65.7754C380.588 67.6091 381.05 69.7577 381.05 72.2212ZM415.924 84H409.94V65.5024L409.604 66.8042C408.849 69.7577 408.17 71.9902 407.568 73.502L403.411 84H398.854L394.634 73.418C394.032 71.8783 393.388 69.7157 392.703 66.9302L392.304 65.5024V84H386.341V60.5264H395.159L399.19 70.5415C399.61 71.6193 399.995 72.8581 400.345 74.2578C400.709 75.6576 400.954 76.8543 401.08 77.8481C401.542 75.7485 401.899 74.2438 402.151 73.334C402.417 72.4102 402.704 71.5633 403.012 70.7935C403.32 70.0236 404.712 66.6012 407.19 60.5264H415.924V84ZM437.571 84L436.332 80.8086H436.165C435.087 82.1663 433.974 83.1112 432.826 83.6431C431.692 84.161 430.209 84.4199 428.375 84.4199C426.121 84.4199 424.344 83.776 423.042 82.4883C421.754 81.2005 421.11 79.3669 421.11 76.9873C421.11 74.4958 421.978 72.6621 423.714 71.4863C425.464 70.2966 428.095 69.6387 431.608 69.5127L435.682 69.3867V68.3579C435.682 65.9784 434.464 64.7886 432.028 64.7886C430.153 64.7886 427.948 65.3555 425.415 66.4893L423.294 62.1641C425.995 60.7503 428.991 60.0435 432.28 60.0435C435.43 60.0435 437.844 60.7293 439.524 62.1011C441.204 63.4728 442.043 65.5584 442.043 68.3579V84H437.571ZM435.682 73.124L433.204 73.208C431.342 73.264 429.957 73.5999 429.047 74.2158C428.137 74.8317 427.682 75.7695 427.682 77.0293C427.682 78.835 428.718 79.7378 430.79 79.7378C432.273 79.7378 433.456 79.3109 434.338 78.457C435.234 77.6032 435.682 76.4694 435.682 75.0557V73.124Z" fill="black"/>
</svg>
