<svg width="605" height="112" viewBox="0 0 605 112" fill="none" xmlns="http://www.w3.org/2000/svg">
<path d="M16.3487 42L7.23929 12.3169H7.00638C7.33418 18.3553 7.49808 22.3838 7.49808 24.4023V42H0.32962V4.16504H11.2505L20.2046 33.0977H20.3599L29.8574 4.16504H40.7783V42H33.2993V24.0918C33.2993 23.2464 33.308 22.2716 33.3252 21.1675C33.3597 20.0633 33.4805 17.1304 33.6875 12.3687H33.4546L23.6983 42H16.3487ZM57.3408 13.0674V24.5059C57.3408 25.7135 57.1424 28.6637 56.7456 33.3564L70.0991 13.0674H79.5967V42H71.9624V30.458C71.9624 28.4049 72.135 25.5065 72.48 21.7627L59.1783 42H49.7066V13.0674H57.3408ZM113.809 42H105.916V18.9937H98.6436C98.0915 25.4634 97.4186 30.2941 96.625 33.4858C95.8314 36.6603 94.7704 38.9635 93.4419 40.3955C92.1307 41.8102 90.4055 42.5176 88.2661 42.5176C86.4374 42.5176 84.9364 42.2415 83.7632 41.6895V35.375C84.6086 35.7201 85.454 35.8926 86.2993 35.8926C87.2827 35.8926 88.1022 35.1852 88.7578 33.7705C89.4307 32.3558 90.0259 30.0008 90.5435 26.7056C91.0783 23.3931 91.5355 18.847 91.9151 13.0674H113.809V42ZM130.009 24.2471H133.813C138.23 24.2471 141.499 24.9544 143.621 26.3691C145.743 27.7839 146.804 29.9232 146.804 32.7871C146.804 35.8408 145.743 38.144 143.621 39.6968C141.499 41.2323 138.325 42 134.098 42H122.116V13.0674H130.009V24.2471ZM138.911 32.8906C138.911 31.7692 138.463 30.9583 137.565 30.458C136.668 29.9577 135.331 29.7075 133.554 29.7075H130.009V36.5396H133.658C137.16 36.5396 138.911 35.3232 138.911 32.8906ZM158.89 42H150.997V13.0674H158.89V42ZM179.179 18.1397C177.505 18.1397 176.194 18.6745 175.245 19.7441C174.296 20.7966 173.753 22.2975 173.615 24.2471H184.691C184.656 22.2975 184.147 20.7966 183.164 19.7441C182.181 18.6745 180.852 18.1397 179.179 18.1397ZM180.292 42.5176C175.633 42.5176 171.993 41.2323 169.371 38.6616C166.748 36.091 165.437 32.4507 165.437 27.7407C165.437 22.8927 166.645 19.1489 169.06 16.5093C171.493 13.8524 174.848 12.5239 179.127 12.5239C183.216 12.5239 186.399 13.6885 188.676 16.0176C190.954 18.3467 192.092 21.5643 192.092 25.6704V29.5005H173.434C173.52 31.7433 174.184 33.4945 175.426 34.7539C176.668 36.0133 178.411 36.6431 180.654 36.6431C182.396 36.6431 184.044 36.4619 185.597 36.0996C187.149 35.7373 188.771 35.1593 190.462 34.3657V40.4731C189.082 41.1632 187.607 41.6722 186.037 42C184.467 42.3451 182.552 42.5176 180.292 42.5176ZM255.366 42H212.278V13.0674H220.171V36.0737H229.875V13.0674H237.769V36.0737H247.473V13.0674H255.366V42ZM287.611 13.0674V18.9937H278.14V42H270.247V18.9937H260.749V13.0674H287.611ZM288.879 13.0674H297.523L302.983 29.3452C303.449 30.7599 303.768 32.4334 303.941 34.3657H304.096C304.286 32.5887 304.657 30.9152 305.209 29.3452L310.566 13.0674H319.028L306.788 45.7007C305.666 48.7199 304.062 50.98 301.974 52.481C299.904 53.9819 297.48 54.7324 294.702 54.7324C293.339 54.7324 292.002 54.5858 290.691 54.2925V48.0298C291.64 48.2541 292.675 48.3662 293.796 48.3662C295.194 48.3662 296.41 47.9349 297.445 47.0723C298.498 46.2269 299.317 44.9416 299.904 43.2163L300.37 41.793L288.879 13.0674ZM342.164 13.0674H350.859L339.395 26.9385L351.869 42H342.915L331.088 27.3267V42H323.195V13.0674H331.088V27.1196L342.164 13.0674ZM363.644 13.0674V24.5059C363.644 25.7135 363.445 28.6637 363.048 33.3564L376.402 13.0674H385.899V42H378.265V30.458C378.265 28.4049 378.438 25.5065 378.783 21.7627L365.481 42H356.009V13.0674H363.644ZM423.864 42.5176C420.465 42.5176 417.799 41.284 415.867 38.8169H415.453C415.729 41.2323 415.867 42.6297 415.867 43.0093V54.7324H407.974V13.0674H414.392L415.505 16.8198H415.867C417.713 13.9559 420.448 12.5239 424.071 12.5239C427.487 12.5239 430.161 13.8438 432.093 16.4834C434.026 19.123 434.992 22.7892 434.992 27.4819C434.992 30.5702 434.535 33.2529 433.62 35.5303C432.723 37.8076 431.438 39.5415 429.764 40.7319C428.091 41.9224 426.124 42.5176 423.864 42.5176ZM421.535 18.8384C419.585 18.8384 418.162 19.4422 417.265 20.6499C416.368 21.8403 415.902 23.8158 415.867 26.5762V27.4302C415.867 30.5356 416.324 32.7612 417.239 34.1069C418.17 35.4526 419.637 36.1255 421.638 36.1255C425.175 36.1255 426.943 33.2098 426.943 27.3784C426.943 24.5317 426.503 22.401 425.624 20.9863C424.761 19.5544 423.398 18.8384 421.535 18.8384ZM437.373 13.0674H446.016L451.477 29.3452C451.942 30.7599 452.262 32.4334 452.434 34.3657H452.589C452.779 32.5887 453.15 30.9152 453.702 29.3452L459.059 13.0674H467.521L455.281 45.7007C454.159 48.7199 452.555 50.98 450.467 52.481C448.397 53.9819 445.973 54.7324 443.195 54.7324C441.832 54.7324 440.495 54.5858 439.184 54.2925V48.0298C440.133 48.2541 441.168 48.3662 442.29 48.3662C443.687 48.3662 444.903 47.9349 445.938 47.0723C446.991 46.2269 447.81 44.9416 448.397 43.2163L448.863 41.793L437.373 13.0674ZM478.624 13.0674V23.6519C478.624 26.1707 479.788 27.4302 482.117 27.4302C483.635 27.4302 485.042 27.2577 486.335 26.9126C487.647 26.5675 488.966 26.119 490.295 25.5669V13.0674H498.188V42H490.295V30.5098C488.466 31.4759 486.767 32.1574 485.197 32.5542C483.627 32.951 482.109 33.1494 480.642 33.1494C477.485 33.1494 475.044 32.3472 473.318 30.7427C471.593 29.1209 470.73 26.8177 470.73 23.833V13.0674H478.624ZM514.362 13.0674V24.1953H525.387V13.0674H533.28V42H525.387V30.0698H514.362V42H506.469V13.0674H514.362ZM547.85 27.4819C547.85 30.3459 548.315 32.5111 549.247 33.9775C550.196 35.444 551.731 36.1772 553.854 36.1772C555.958 36.1772 557.468 35.4526 558.382 34.0034C559.314 32.5369 559.78 30.3631 559.78 27.4819C559.78 24.618 559.314 22.4701 558.382 21.0381C557.451 19.6061 555.924 18.8901 553.802 18.8901C551.697 18.8901 550.179 19.6061 549.247 21.0381C548.315 22.4528 547.85 24.6007 547.85 27.4819ZM567.854 27.4819C567.854 32.1919 566.612 35.8753 564.127 38.5322C561.643 41.1891 558.184 42.5176 553.75 42.5176C550.972 42.5176 548.522 41.9137 546.4 40.7061C544.278 39.4811 542.648 37.73 541.509 35.4526C540.371 33.1753 539.801 30.5184 539.801 27.4819C539.801 22.7547 541.035 19.0799 543.502 16.4575C545.969 13.8351 549.437 12.5239 553.905 12.5239C556.683 12.5239 559.133 13.1278 561.255 14.3355C563.377 15.5431 565.007 17.277 566.146 19.5371C567.285 21.7972 567.854 24.4455 567.854 27.4819ZM582.01 13.0674V24.5059C582.01 25.7135 581.811 28.6637 581.415 33.3564L594.768 13.0674H604.266V42H596.631V30.458C596.631 28.4049 596.804 25.5065 597.149 21.7627L583.847 42H574.375V13.0674H582.01ZM601.937 0.619632C601.609 3.84587 600.392 6.20085 598.288 7.68457C596.183 9.15104 593.146 9.88428 589.178 9.88428C585.089 9.88428 582.062 9.17692 580.095 7.76221C578.145 6.3475 577.05 3.96664 576.808 0.619632H583.873C583.994 2.39665 584.434 3.64746 585.193 4.37207C585.969 5.07943 587.349 5.43311 589.333 5.43311C591.076 5.43311 592.37 5.04492 593.215 4.26856C594.078 3.47494 594.604 2.25863 594.794 0.619632H601.937ZM82.5469 99.5176C79.1481 99.5176 76.4826 98.284 74.5503 95.8169H74.1363C74.4123 98.2323 74.5503 99.6297 74.5503 100.009V111.732H66.6573V70.0674H73.0752L74.188 73.8198H74.5503C76.3964 70.9559 79.1309 69.5239 82.7539 69.5239C86.17 69.5239 88.8441 70.8438 90.7764 73.4834C92.7087 76.123 93.6748 79.7892 93.6748 84.4819C93.6748 87.5702 93.2176 90.2529 92.3033 92.5303C91.4061 94.8076 90.1208 96.5415 88.4473 97.7319C86.7738 98.9224 84.807 99.5176 82.5469 99.5176ZM80.2178 75.8384C78.2683 75.8384 76.8449 76.4422 75.9478 77.6499C75.0506 78.8403 74.5848 80.8158 74.5503 83.5762V84.4302C74.5503 87.5356 75.0075 89.7612 75.9219 91.1069C76.8535 92.4526 78.32 93.1255 80.3213 93.1255C83.8581 93.1255 85.6265 90.2098 85.6265 84.3784C85.6265 81.5317 85.1866 79.401 84.3067 77.9863C83.444 76.5544 82.0811 75.8384 80.2178 75.8384ZM118.57 99L117.043 95.0664H116.836C115.508 96.7399 114.136 97.9045 112.722 98.5601C111.324 99.1984 109.495 99.5176 107.235 99.5176C104.458 99.5176 102.267 98.724 100.662 97.1367C99.0749 95.5495 98.2813 93.2894 98.2813 90.3564C98.2813 87.2855 99.3509 85.0254 101.49 83.5762C103.647 82.1097 106.89 81.2988 111.221 81.1436L116.241 80.9883V79.7202C116.241 76.7873 114.74 75.3208 111.738 75.3208C109.426 75.3208 106.709 76.0195 103.586 77.417L100.973 72.0859C104.302 70.3434 107.994 69.4722 112.049 69.4722C115.931 69.4722 118.907 70.3175 120.977 72.0083C123.047 73.6991 124.083 76.2697 124.083 79.7202V99H118.57ZM116.241 85.5947L113.188 85.6982C110.893 85.7673 109.185 86.1813 108.064 86.9404C106.942 87.6995 106.381 88.8555 106.381 90.4082C106.381 92.6338 107.658 93.7466 110.211 93.7466C112.04 93.7466 113.498 93.2204 114.585 92.168C115.689 91.1156 116.241 89.7181 116.241 87.9756V85.5947ZM130.475 81.6611C130.475 75.0189 131.734 69.9811 134.253 66.5479C136.789 63.0973 140.74 60.9149 146.105 60.0005C148.711 59.5519 152.601 58.9826 157.777 58.2925L158.683 65.1763C156.44 65.4351 152.463 65.9871 146.752 66.8325C144.579 67.1776 142.957 67.6952 141.887 68.3853C140.818 69.0754 140.015 70.0588 139.48 71.3355C138.963 72.6121 138.644 74.3115 138.523 76.4336H138.911C139.826 75.0189 141.033 73.932 142.534 73.1729C144.035 72.4137 145.648 72.0342 147.374 72.0342C150.945 72.0342 153.723 73.1297 155.707 75.3208C157.691 77.4946 158.683 80.6174 158.683 84.689C158.683 89.3817 157.423 93.0306 154.904 95.6357C152.403 98.2236 148.944 99.5176 144.527 99.5176C140.11 99.5176 136.66 97.939 134.175 94.7817C131.708 91.6073 130.475 87.2337 130.475 81.6611ZM144.993 93.1255C148.737 93.1255 150.608 90.5462 150.608 85.3877C150.608 80.3672 148.918 77.8569 145.536 77.8569C144.605 77.8569 143.673 78.0726 142.741 78.5039C141.827 78.9352 140.981 79.5046 140.205 80.2119C139.446 80.902 138.885 81.6007 138.523 82.3081C138.523 85.8104 139.084 88.4932 140.205 90.3564C141.327 92.2025 142.922 93.1255 144.993 93.1255ZM171.493 84.4819C171.493 87.3459 171.959 89.5111 172.89 90.9775C173.839 92.444 175.375 93.1772 177.497 93.1772C179.601 93.1772 181.111 92.4526 182.025 91.0034C182.957 89.5369 183.423 87.3631 183.423 84.4819C183.423 81.618 182.957 79.4701 182.025 78.0381C181.094 76.6061 179.567 75.8901 177.445 75.8901C175.34 75.8901 173.822 76.6061 172.89 78.0381C171.959 79.4528 171.493 81.6007 171.493 84.4819ZM191.497 84.4819C191.497 89.1919 190.255 92.8753 187.771 95.5322C185.286 98.1891 181.827 99.5176 177.393 99.5176C174.615 99.5176 172.166 98.9137 170.043 97.7061C167.921 96.4811 166.291 94.73 165.152 92.4526C164.014 90.1753 163.444 87.5184 163.444 84.4819C163.444 79.7547 164.678 76.0799 167.145 73.4575C169.612 70.8351 173.08 69.5239 177.548 69.5239C180.326 69.5239 182.776 70.1278 184.898 71.3355C187.02 72.5431 188.65 74.277 189.789 76.5371C190.928 78.7972 191.497 81.4455 191.497 84.4819ZM221.957 70.0674V75.9937H212.485V99H204.592V75.9937H195.094V70.0674H221.957ZM235.258 81.2471H239.062C243.479 81.2471 246.749 81.9544 248.871 83.3691C250.993 84.7839 252.054 86.9232 252.054 89.7871C252.054 92.8408 250.993 95.144 248.871 96.6968C246.749 98.2323 243.574 99 239.347 99H227.365V70.0674H235.258V81.2471ZM244.161 89.8906C244.161 88.7692 243.712 87.9583 242.815 87.458C241.918 86.9577 240.581 86.7075 238.804 86.7075H235.258V93.5396H238.907C242.41 93.5396 244.161 92.3232 244.161 89.8906ZM264.139 99H256.246V70.0674H264.139V99ZM304.329 93.229V75.9937H298.403C297.972 79.2026 297.376 82.2477 296.617 85.1289C295.875 88.0101 294.84 90.7101 293.512 93.229H304.329ZM316.466 109.377H309.375V99H289.915V109.377H282.824V93.229H285.256C286.913 90.6584 288.301 87.4149 289.423 83.4985C290.544 79.5822 291.329 75.1051 291.778 70.0674H312.222V93.229H316.466V109.377ZM347.314 99H339.421V75.9937H332.149C331.597 82.4634 330.924 87.2941 330.13 90.4858C329.337 93.6603 328.276 95.9635 326.947 97.3955C325.636 98.8102 323.911 99.5176 321.771 99.5176C319.943 99.5176 318.442 99.2415 317.269 98.6895V92.375C318.114 92.7201 318.959 92.8926 319.805 92.8926C320.788 92.8926 321.608 92.1852 322.263 90.7705C322.936 89.3558 323.531 87.0008 324.049 83.7056C324.584 80.3931 325.041 75.847 325.42 70.0674H347.314V99ZM360.021 99H351.48L359.27 87.5615C357.407 86.7852 355.992 85.6637 355.026 84.1973C354.077 82.7308 353.603 81.0055 353.603 79.0215C353.603 76.2266 354.646 74.0355 356.734 72.4482C358.839 70.861 361.703 70.0674 365.326 70.0674H378.783V99H370.89V88.2344H366.542L360.021 99ZM361.34 79.0732C361.34 80.2809 361.815 81.2298 362.764 81.9199C363.713 82.5928 364.955 82.9292 366.49 82.9292H370.89V75.6313H365.481C364.187 75.6313 363.169 75.9505 362.427 76.5889C361.703 77.21 361.34 78.0381 361.34 79.0732ZM418.921 93.229V75.9937H412.995C412.563 79.2026 411.968 82.2477 411.209 85.1289C410.467 88.0101 409.432 90.7101 408.104 93.229H418.921ZM431.058 109.377H423.967V99H404.506V109.377H397.416V93.229H399.848C401.504 90.6584 402.893 87.4149 404.015 83.4985C405.136 79.5822 405.921 75.1051 406.37 70.0674H426.814V93.229H431.058V109.377ZM442.29 84.4819C442.29 87.3459 442.755 89.5111 443.687 90.9775C444.636 92.444 446.171 93.1772 448.293 93.1772C450.398 93.1772 451.908 92.4526 452.822 91.0034C453.754 89.5369 454.22 87.3631 454.22 84.4819C454.22 81.618 453.754 79.4701 452.822 78.0381C451.891 76.6061 450.364 75.8901 448.242 75.8901C446.137 75.8901 444.619 76.6061 443.687 78.0381C442.755 79.4528 442.29 81.6007 442.29 84.4819ZM462.294 84.4819C462.294 89.1919 461.052 92.8753 458.567 95.5322C456.083 98.1891 452.624 99.5176 448.19 99.5176C445.412 99.5176 442.962 98.9137 440.84 97.7061C438.718 96.4811 437.088 94.73 435.949 92.4526C434.811 90.1753 434.241 87.5184 434.241 84.4819C434.241 79.7547 435.475 76.0799 437.942 73.4575C440.409 70.8351 443.877 69.5239 448.345 69.5239C451.123 69.5239 453.573 70.1278 455.695 71.3355C457.817 72.5431 459.447 74.277 460.586 76.5371C461.725 78.7972 462.294 81.4455 462.294 84.4819ZM505.279 99H497.903V76.2007L497.489 77.8052C496.558 81.4455 495.721 84.1973 494.979 86.0605L489.855 99H484.239L479.038 85.957C478.296 84.0592 477.502 81.3937 476.657 77.9605L476.165 76.2007V99H468.815V70.0674H479.685L484.653 82.4116C485.171 83.7401 485.645 85.2669 486.077 86.9922C486.525 88.7174 486.827 90.1925 486.982 91.4175C487.552 88.8296 487.992 86.9749 488.302 85.8535C488.63 84.7148 488.984 83.6711 489.363 82.7222C489.743 81.7733 491.459 77.555 494.513 70.0674H505.279V99ZM531.96 99L530.433 95.0664H530.226C528.898 96.7399 527.526 97.9045 526.111 98.5601C524.714 99.1984 522.885 99.5176 520.625 99.5176C517.847 99.5176 515.656 98.724 514.052 97.1367C512.465 95.5495 511.671 93.2894 511.671 90.3564C511.671 87.2855 512.741 85.0254 514.88 83.5762C517.036 82.1097 520.28 81.2988 524.61 81.1436L529.631 80.9883V79.7202C529.631 76.7873 528.13 75.3208 525.128 75.3208C522.816 75.3208 520.099 76.0195 516.976 77.417L514.362 72.0859C517.692 70.3434 521.384 69.4722 525.438 69.4722C529.32 69.4722 532.296 70.3175 534.367 72.0083C536.437 73.6991 537.472 76.2697 537.472 79.7202V99H531.96ZM529.631 85.5947L526.577 85.6982C524.283 85.7673 522.575 86.1813 521.453 86.9404C520.332 87.6995 519.771 88.8555 519.771 90.4082C519.771 92.6338 521.048 93.7466 523.601 93.7466C525.43 93.7466 526.888 93.2204 527.975 92.168C529.079 91.1156 529.631 89.7181 529.631 87.9756V85.5947Z" fill="black"/>
</svg>
